<svg width="24" height="24" viewBox="0 0 24 24" fill="none" xmlns="http://www.w3.org/2000/svg">
<path d="M19 11V20.4C19 20.5591 18.9368 20.7117 18.8243 20.8243C18.7117 20.9368 18.5591 21 18.4 21H5.6C5.44087 21 5.28826 20.9368 5.17574 20.8243C5.06321 20.7117 5 20.5591 5 20.4V11M10 17V11M14 17V11M21 7H16M3 7H8M8 7V3.6C8 3.44087 8.06321 3.28826 8.17574 3.17574C8.28826 3.06321 8.44087 3 8.6 3H15.4C15.5591 3 15.7117 3.06321 15.8243 3.17574C15.9368 3.28826 16 3.44087 16 3.6V7M8 7H16" stroke="#2F40B4" stroke-width="1.5" stroke-linecap="round" stroke-linejoin="round"/>
</svg>
