<svg width="44" height="27" viewBox="0 0 44 27" fill="none" xmlns="http://www.w3.org/2000/svg">
<path fill-rule="evenodd" clip-rule="evenodd" d="M16.1881 23.6212H27.6585V3.12358H16.1881V23.6212Z" fill="#FF5F00"/>
<path fill-rule="evenodd" clip-rule="evenodd" d="M16.9167 13.3724C16.9167 9.21395 18.8747 5.51028 21.9237 3.12361C19.6937 1.37787 16.8803 0.336436 13.8223 0.336436C6.58283 0.336436 0.714355 6.17295 0.714355 13.3724C0.714355 20.5719 6.58283 26.4084 13.8223 26.4084C16.8803 26.4084 19.6937 25.367 21.9237 23.6213C18.8747 21.2342 16.9167 17.5309 16.9167 13.3724Z" fill="#EB001B"/>
<path fill-rule="evenodd" clip-rule="evenodd" d="M42.7234 21.4503V20.9444H42.5905L42.4379 21.2924L42.285 20.9444H42.1521V21.4503H42.2457V21.0686L42.3891 21.3978H42.4864L42.6298 21.0679V21.4503H42.7234ZM41.8819 21.4503V21.0306H42.0523V20.9451H41.619V21.0306H41.789V21.4503H41.8819ZM43.1327 13.3723C43.1327 20.5718 37.2639 26.4083 30.0248 26.4083C26.9667 26.4083 24.1533 25.367 21.9237 23.6213C24.9726 21.2346 26.9303 17.5308 26.9303 13.3723C26.9303 9.21418 24.9726 5.51064 21.9237 3.12361C24.1533 1.37787 26.9667 0.336304 30.0248 0.336304C37.2639 0.336304 43.1327 6.17281 43.1327 13.3723Z" fill="#F79E1B"/>
</svg>
