<svg width="130" height="130" viewBox="0 0 130 130" fill="none" xmlns="http://www.w3.org/2000/svg">
<path fill-rule="evenodd" clip-rule="evenodd" d="M18.0225 71.3708C42.9471 71.3708 63.1524 51.4725 63.1524 26.9267C63.1524 22.0622 62.3589 17.3802 60.8923 12.9995C81.4937 17.1159 97.0003 35.0523 97.0003 56.5554C97.0003 81.1012 76.7949 101 51.8703 101C31.8852 101 14.9343 88.2066 9.00049 70.4826C11.9156 71.065 14.9328 71.3708 18.0225 71.3708Z" fill="url(#paint0_linear_357_981)"/>
<path fill-rule="evenodd" clip-rule="evenodd" d="M93.6188 116.594C108.37 116.594 120.328 104.636 120.328 89.8845C120.328 75.1331 108.37 63.1747 93.6186 63.1747C91.0339 63.1747 88.5349 63.5418 86.1709 64.2268C81.7208 55.6666 72.7717 49.8198 62.457 49.8198C47.7055 49.8198 35.7471 61.7782 35.7471 76.5296L35.7474 76.6519C35.0165 76.5711 34.2738 76.5296 33.5214 76.5296C22.4579 76.5296 13.4891 85.4984 13.4891 96.562C13.4891 106.873 21.2796 115.365 31.2958 116.472V116.594L33.5214 116.594L93.6186 116.594C93.6187 116.594 93.6187 116.594 93.6188 116.594Z" fill="url(#paint1_linear_357_981)"/>
<defs>
<linearGradient id="paint0_linear_357_981" x1="61.2718" y1="66.7028" x2="81.6397" y2="87.3849" gradientUnits="userSpaceOnUse">
<stop stop-color="#FBDF00"/>
<stop offset="1" stop-color="#FAAE00"/>
</linearGradient>
<linearGradient id="paint1_linear_357_981" x1="40.3846" y1="90.7749" x2="71.148" y2="129.229" gradientUnits="userSpaceOnUse">
<stop stop-color="white"/>
<stop offset="1" stop-color="#BDE0F5"/>
</linearGradient>
</defs>
</svg>
