<svg width="130" height="130" viewBox="0 0 130 130" fill="none" xmlns="http://www.w3.org/2000/svg">
<path fill-rule="evenodd" clip-rule="evenodd" d="M102.5 88.7498C102.5 88.7498 102.5 88.7498 102.5 88.7498C117.688 88.7498 130 76.4377 130 61.2499C130 46.0621 117.688 33.7499 102.5 33.7499C99.8389 33.7499 97.266 34.1279 94.8322 34.8331C90.2504 26.0197 81.0366 20 70.4168 20C55.229 20 42.9168 32.3122 42.9168 47.5L42.9171 47.6257C42.1645 47.5425 41.3997 47.4998 40.625 47.4998C29.2341 47.4998 20 56.7339 20 68.1248C20 78.741 28.021 87.4839 38.3333 88.6239V88.7501H102.5V88.7498Z" fill="url(#paint0_linear_357_917)"/>
<path fill-rule="evenodd" clip-rule="evenodd" d="M87.5999 98.4999C87.6 98.4999 87.6 98.4999 87.6 98.4999C102.733 98.4999 115 86.2325 115 71.0999C115 55.9673 102.733 43.6999 87.6 43.6999C84.9485 43.6999 82.385 44.0765 79.96 44.7792C75.3949 35.9978 66.2146 30 55.6334 30C40.5008 30 28.2334 42.2674 28.2334 57.4L28.2337 57.5253C27.4838 57.4424 26.7218 57.3998 25.9499 57.3998C14.6004 57.3998 5.3999 66.6004 5.3999 77.9498C5.3999 88.5275 13.3917 97.2386 23.6666 98.3744V98.5002H87.5999V98.4999Z" fill="url(#paint1_linear_357_917)"/>
<defs>
<linearGradient id="paint0_linear_357_917" x1="47.691" y1="62.1667" x2="79.3645" y2="101.759" gradientUnits="userSpaceOnUse">
<stop stop-color="#AEAEAE"/>
<stop offset="1" stop-color="#393939"/>
</linearGradient>
<linearGradient id="paint1_linear_357_917" x1="32.9902" y1="72.0134" x2="64.5486" y2="111.461" gradientUnits="userSpaceOnUse">
<stop stop-color="white"/>
<stop offset="1" stop-color="#BDE0F5"/>
</linearGradient>
</defs>
</svg>
