<svg width="130" height="130" viewBox="0 0 130 130" fill="none" xmlns="http://www.w3.org/2000/svg">
<path fill-rule="evenodd" clip-rule="evenodd" d="M97.5 83.8265V83.8281H21.6667V83.6775C9.4793 82.3206 0 71.9147 0 59.279C0 45.7213 10.9131 34.7306 24.375 34.7306C25.2906 34.7306 26.1943 34.7815 27.0837 34.8805C27.0834 34.8307 27.0833 34.7809 27.0833 34.7311C27.0833 16.6542 41.6341 2 59.5833 2C72.1336 2 83.0224 9.16436 88.4374 19.6537C91.3139 18.8142 94.3548 18.3643 97.5 18.3643C115.449 18.3643 130 33.0185 130 51.0954C130 69.1723 115.449 83.8265 97.5 83.8265Z" fill="url(#paint0_linear_357_928)"/>
<g clip-path="url(#clip0_357_928)">
<path d="M43.9502 65.1855C44.1227 64.8796 44.3897 64.6379 44.7111 64.4965C45.0325 64.355 45.3912 64.3215 45.7332 64.401L58.3978 67.3351C58.6485 67.3934 58.8817 67.5103 59.0783 67.6764C59.2749 67.8424 59.4293 68.0528 59.5287 68.2902C59.6281 68.5275 59.6697 68.7851 59.6501 69.0417C59.6305 69.2983 59.5502 69.5466 59.4159 69.7661L49.8617 85.3739L61.912 88.1657C62.2085 88.2342 62.4798 88.3846 62.6951 88.5997C62.9103 88.8148 63.0608 89.086 63.1295 89.3825C63.1981 89.679 63.1821 89.9888 63.0833 90.2766C62.9845 90.5644 62.8069 90.8187 62.5707 91.0105L33.806 114.371C33.511 114.612 33.1408 114.741 32.7601 114.737C32.3794 114.733 32.0122 114.595 31.7228 114.347C31.4334 114.1 31.24 113.759 31.1764 113.383C31.1128 113.008 31.1831 112.622 31.3749 112.293L41.3705 95.083L30.8494 92.6455C30.6032 92.5886 30.3737 92.4751 30.1791 92.3141C29.9845 92.153 29.8301 91.9487 29.7282 91.7175C29.6263 91.4864 29.5798 91.2346 29.5922 90.9823C29.6046 90.7299 29.6757 90.484 29.7998 90.2639L43.9502 65.1855Z" fill="url(#paint1_linear_357_928)"/>
</g>
<defs>
<linearGradient id="paint0_linear_357_928" x1="32.7257" y1="52.1879" x2="70.4821" y2="99.05" gradientUnits="userSpaceOnUse">
<stop stop-color="white"/>
<stop offset="1" stop-color="#BDE0F5"/>
</linearGradient>
<linearGradient id="paint1_linear_357_928" x1="36.2339" y1="62.2002" x2="54.3152" y2="80.3128" gradientUnits="userSpaceOnUse">
<stop stop-color="#FAE26F"/>
<stop offset="1" stop-color="#F7BC3D"/>
</linearGradient>
<clipPath id="clip0_357_928">
<rect width="52" height="52" fill="white" transform="translate(26.7363 60) rotate(13.044)"/>
</clipPath>
</defs>
</svg>
