<svg width="452" height="460" viewBox="0 0 452 460" fill="none" xmlns="http://www.w3.org/2000/svg">
<g clip-path="url(#clip0_283_504)">
<path d="M156.72 192.411C167.633 200.899 183.361 198.931 191.849 188.008C200.338 177.095 198.369 161.367 187.446 152.879C178.111 145.618 165.251 146.02 156.424 153.112L156.413 153.101L150.92 148.835L142.76 151.376L143.691 143.215L136.811 137.87L128.651 140.41L129.582 132.25L123.666 127.656L118.691 129.202L119.263 124.227L115.823 121.549L108.012 122.322L106.964 134.325L147.883 166.13C145.374 175.582 148.528 186.039 156.72 192.411ZM186.536 183.88C184.102 187.013 179.593 187.574 176.46 185.139C173.327 182.705 172.766 178.196 175.2 175.063C177.635 171.93 182.144 171.369 185.277 173.804C188.399 176.238 188.971 180.747 186.536 183.88Z" fill="#EBEBEB"/>
<path d="M189.702 96.7507C194.39 91.014 193.533 82.5784 187.807 77.8896C182.07 73.2007 173.624 74.0581 168.946 79.7841C164.935 84.6846 164.988 91.575 168.671 96.3908L166.311 99.2803L167.57 103.683L163.22 103.08L160.267 106.689L161.526 111.092L157.176 110.489L154.636 113.601L155.398 116.279L152.742 115.908L151.26 117.718L151.567 121.909L157.97 122.629L175.529 101.143C180.546 102.604 186.177 101.058 189.702 96.7507ZM185.521 80.6838C187.161 82.028 187.405 84.4518 186.061 86.0923C184.716 87.7329 182.293 87.9763 180.652 86.6321C179.012 85.2879 178.768 82.8641 180.112 81.2236C181.446 79.583 183.87 79.3396 185.521 80.6838Z" fill="#EBEBEB"/>
<path d="M133.087 5.83203V83.5098H21.5183L17.5068 6.37183L133.087 5.83203Z" fill="#E0E0E0"/>
<path d="M17.5059 6.37441L17.5059 83.343H129.074V6.37441H17.5059Z" fill="white"/>
<path d="M129.594 83.8691H16.9775V5.84204H129.604V83.8691H129.594ZM18.036 82.8106H128.546V6.90047H18.036V82.8106Z" fill="#E0E0E0"/>
<path d="M116.977 15.939H29.583V73.7818H116.977V15.939Z" fill="white"/>
<path d="M116.988 15.9401C116.988 15.9401 116.84 15.9506 116.555 15.9506C116.258 15.9506 115.845 15.9612 115.316 15.9612C114.205 15.9718 112.596 15.9824 110.511 15.993C106.309 16.0036 100.212 16.0353 92.4965 16.0565C77.0859 16.0882 55.2717 16.1306 29.5838 16.1835L29.8378 15.9295C29.8484 33.6052 29.8484 53.186 29.859 73.7618V73.7723L29.5838 73.4972C62.5537 73.5183 92.9516 73.5395 116.978 73.5501L116.756 73.7723C116.809 56.1708 116.84 41.7339 116.872 31.6894C116.893 26.6619 116.914 22.7457 116.925 20.0467C116.936 18.7131 116.946 17.697 116.946 16.9879C116.967 16.2999 116.988 15.9401 116.988 15.9401C116.988 15.9401 116.999 16.2788 117.01 16.9561C117.02 17.6547 117.02 18.6602 117.031 19.9727C117.041 22.6505 117.063 26.5561 117.084 31.5624C117.115 41.6492 117.147 56.1284 117.2 73.7829V74.0052H116.978C92.9411 74.0158 62.5431 74.037 29.5838 74.0581H29.3086V73.7829V73.7723C29.3192 53.186 29.3192 33.6052 29.3298 15.9401V15.686H29.5838C55.3352 15.739 77.2129 15.7813 92.6659 15.813C100.35 15.8448 106.436 15.866 110.617 15.8766C112.681 15.8871 114.268 15.8977 115.369 15.9083C115.888 15.9189 116.29 15.9189 116.586 15.9189C116.851 15.9295 116.988 15.9401 116.988 15.9401Z" fill="#E0E0E0"/>
<path d="M17.5069 6.16008C17.5493 6.09657 18.2796 6.58345 19.4227 7.39844C20.5658 8.22401 22.1216 9.38827 23.794 10.7325C25.4768 12.0767 26.9481 13.3468 27.9853 14.2994C29.0226 15.2519 29.6365 15.8764 29.5835 15.9293C29.4777 16.0458 26.7999 13.8337 23.4447 11.1558C20.1001 8.48861 17.4011 6.28709 17.5069 6.16008Z" fill="#E0E0E0"/>
<path d="M123.199 11.3672C126.536 8.72618 129.164 6.48863 129.07 6.36946C128.975 6.25029 126.194 8.29462 122.857 10.9356C119.52 13.5766 116.892 15.8141 116.986 15.9333C117.081 16.0525 119.862 14.0081 123.199 11.3672Z" fill="#E0E0E0"/>
<path d="M128.978 83.3502C124.829 79.9844 120.691 76.6292 116.542 73.2634Z" fill="white"/>
<path d="M128.981 83.353C129.077 83.235 126.371 80.8833 122.938 78.1006C119.505 75.3178 116.644 73.1576 116.548 73.2757C116.453 73.3938 119.158 75.7454 122.592 78.5282C126.025 81.3109 128.886 83.4711 128.981 83.353Z" fill="#E0E0E0"/>
<path d="M23.6513 78.8213C26.9522 76.2106 29.5517 73.9976 29.4575 73.8784C29.3632 73.7592 26.6108 75.7789 23.3099 78.3896C20.0089 81.0003 17.4094 83.2133 17.5037 83.3325C17.598 83.4517 20.3503 81.432 23.6513 78.8213Z" fill="#E0E0E0"/>
<path d="M47.3281 33.9553V53.3245H102.324V33.9553H47.3281Z" fill="#E0E0E0"/>
<path d="M410.044 447.015C410.044 447.163 319.147 447.29 207.039 447.29C94.888 447.29 4.01172 447.163 4.01172 447.015C4.01172 446.867 94.8986 446.74 207.039 446.74C319.147 446.74 410.044 446.867 410.044 447.015Z" fill="#263238"/>
<path d="M325.159 408.7L351.366 446.793L360.722 447.015L343.555 407.843L325.159 408.7Z" fill="#46415A"/>
<path d="M48.7306 410.647L34.9287 446.623H41.8296L65.9405 410.806L48.7306 410.647Z" fill="#46415A"/>
<path d="M42.8139 279.89L43.8299 326.45C43.9781 333.033 49.2702 338.336 55.8536 338.484L316.427 344.284C323.328 344.443 329.012 338.886 329.012 331.985V275.899C329.012 259.346 316.808 245.321 300.403 243.056C252.699 236.494 154.319 226.407 74.81 240.738C55.9595 244.147 42.4011 260.753 42.8139 279.89Z" fill="#D1CFD6"/>
<path d="M41.6495 296.158C41.6495 296.158 20.1846 286.219 15.7922 296.158C11.3997 306.096 16.279 318.289 21.1584 325.116C26.0377 331.943 25.953 415.865 25.953 415.865L351.503 412.383L355.356 331.657C355.356 331.657 370.968 312.426 369.994 304.138C369.02 295.84 355.843 283.774 340.718 296.158C325.593 308.531 321.687 334.388 321.687 334.388L62.13 336.335C62.1406 336.346 62.9979 300.01 41.6495 296.158Z" fill="#D1CFD6"/>
<path d="M318.375 350.518C318.375 350.667 260.701 350.794 189.575 350.794C118.428 350.794 60.7646 350.667 60.7646 350.518C60.7646 350.37 118.428 350.243 189.575 350.243C260.712 350.243 318.375 350.37 318.375 350.518Z" fill="#263238"/>
<path d="M60.7754 386.05C60.7648 386.05 60.7542 385.965 60.7436 385.796C60.7331 385.595 60.7225 385.351 60.7119 385.044C60.6907 384.388 60.6695 383.414 60.659 382.165C60.6484 379.614 60.6484 376.005 60.6378 371.56C60.6272 362.606 60.7013 350.243 60.2885 336.6C60.0345 329.784 59.7911 323.264 58.7961 317.464C58.6056 316.765 58.4151 316.067 58.2352 315.389C57.9706 314.722 57.7165 314.066 57.4308 313.421C56.8698 312.14 56.2983 310.912 55.6738 309.758C54.446 307.44 53.1018 305.398 51.7153 303.662C50.3287 301.926 48.8787 300.508 47.5133 299.396C46.1268 298.306 44.8249 297.502 43.7136 296.951C41.4803 295.851 40.0938 295.586 40.1255 295.512C40.1255 295.501 40.2102 295.523 40.3796 295.554C40.5701 295.607 40.8135 295.671 41.1099 295.745C41.7555 295.904 42.6763 296.232 43.8194 296.761C44.9625 297.29 46.2961 298.073 47.725 299.164C49.1327 300.275 50.6145 301.683 52.0434 303.429C53.4723 305.165 54.8482 307.229 56.1077 309.557C56.7428 310.711 57.3355 311.949 57.9071 313.241C58.1928 313.886 58.4574 314.553 58.7326 315.22C58.9231 315.929 59.1242 316.649 59.3253 317.368C60.3626 323.243 60.6166 329.763 60.8706 336.589C61.2834 350.254 61.1458 362.627 61.0506 371.57C60.9871 376.005 60.9342 379.614 60.9024 382.176C60.8812 383.393 60.8706 384.356 60.8601 385.055C60.8495 385.362 60.8389 385.605 60.8389 385.806C60.7966 385.965 60.786 386.05 60.7754 386.05Z" fill="#263238"/>
<path d="M39.1088 314.902C39.0982 314.881 39.384 314.701 39.9767 314.638C40.5588 314.574 41.4691 314.691 42.3687 315.304C42.8027 315.611 43.2366 316.045 43.533 316.627C43.8188 317.199 43.9669 317.919 43.8399 318.638C43.6283 320.057 42.5063 321.549 40.8023 321.888C39.0876 322.174 37.5106 321.2 36.7803 319.972C36.3992 319.358 36.2405 318.649 36.2616 318.003C36.2934 317.358 36.4839 316.786 36.7379 316.31C37.2565 315.357 37.9869 314.828 38.5267 314.595C39.0664 314.352 39.4051 314.352 39.4051 314.373C39.4157 314.415 39.1088 314.5 38.6325 314.786C38.1562 315.061 37.5211 315.611 37.0978 316.49C36.6744 317.347 36.5262 318.628 37.2248 319.697C37.881 320.755 39.2887 321.591 40.7176 321.337C42.1359 321.062 43.152 319.771 43.3531 318.554C43.5965 317.294 42.9191 316.183 42.1465 315.622C41.3738 315.029 40.5482 314.86 39.9979 314.86C39.4263 314.839 39.1194 314.945 39.1088 314.902Z" fill="#263238"/>
<path d="M40.5809 335.795C40.5386 335.838 39.8612 335.266 39.1097 334.06C38.3582 332.864 37.6173 330.969 37.5962 328.778C37.575 326.587 38.2736 324.671 38.9933 323.454C39.713 322.227 40.3798 321.644 40.4222 321.687C40.4963 321.74 39.9353 322.417 39.332 323.645C38.7287 324.862 38.1254 326.693 38.1466 328.778C38.1677 330.853 38.8134 332.673 39.4484 333.88C40.0835 335.076 40.655 335.732 40.5809 335.795Z" fill="#263238"/>
<path d="M37.1826 304.371C37.2673 304.403 37.0344 304.985 36.8545 305.948C36.6746 306.911 36.6005 308.277 36.9074 309.737C37.2249 311.198 37.8388 312.415 38.3998 313.219C38.9502 314.024 39.3947 314.468 39.3418 314.532C39.2994 314.574 38.7597 314.246 38.0928 313.452C37.426 312.669 36.7063 311.399 36.3782 309.854C36.0501 308.308 36.1983 306.848 36.484 305.863C36.7592 304.868 37.1297 304.339 37.1826 304.371Z" fill="#263238"/>
<path d="M30.8425 316.077C30.9589 315.971 31.9539 316.966 33.4462 317.728C34.9386 318.522 36.3146 318.755 36.2934 318.914C36.2934 319.051 34.7904 319.051 33.1922 318.215C31.5834 317.39 30.7261 316.151 30.8425 316.077Z" fill="#263238"/>
<path d="M352.762 386.05C352.762 386.198 279.329 386.325 188.77 386.325C98.1797 386.325 24.7568 386.198 24.7568 386.05C24.7568 385.901 98.1691 385.774 188.77 385.774C279.329 385.774 352.762 385.901 352.762 386.05Z" fill="#263238"/>
<path d="M317.242 386.018C317.394 386.018 317.517 374.522 317.517 360.34C317.517 346.159 317.394 334.663 317.242 334.663C317.09 334.663 316.967 346.159 316.967 360.34C316.967 374.522 317.09 386.018 317.242 386.018Z" fill="#263238"/>
<path d="M208.531 245.851C208.531 245.851 208.362 245.872 208.023 245.893C207.663 245.904 207.177 245.925 206.542 245.946C205.219 245.988 203.303 246.041 200.847 246.105C195.883 246.221 188.739 246.38 179.922 246.592C162.225 246.951 137.818 247.438 110.871 247.978C104.128 248.137 97.5344 248.116 91.2051 248.539C84.8863 248.962 78.7686 249.841 73.2965 251.81C67.8033 253.694 63.0616 256.848 59.6746 260.732C57.9917 262.68 56.5734 264.754 55.5044 266.903C54.3613 269.02 53.6098 271.2 52.9113 273.285C51.6518 277.508 51.0908 281.477 50.7733 284.959C50.4452 288.452 50.4134 291.479 50.3922 293.945C50.3817 296.412 50.4346 298.338 50.4663 299.629C50.4769 300.264 50.4875 300.751 50.4981 301.111C50.4981 301.45 50.4875 301.619 50.4875 301.619C50.4875 301.619 50.4663 301.45 50.4346 301.122C50.4134 300.762 50.3817 300.275 50.3499 299.64C50.2864 298.338 50.2017 296.422 50.17 293.945C50.1488 291.469 50.1594 288.442 50.4557 284.938C50.7521 281.435 51.2919 277.445 52.5303 273.179C53.2182 271.073 53.9697 268.861 55.1128 266.712C56.1818 264.532 57.6107 262.426 59.3148 260.436C62.7335 256.467 67.5493 253.249 73.106 251.333C78.6416 249.333 84.8016 248.433 91.1522 247.999C97.5133 247.576 104.107 247.586 110.849 247.428C137.807 246.951 162.215 246.517 179.912 246.2C188.728 246.073 195.873 245.967 200.847 245.893C203.303 245.872 205.208 245.851 206.542 245.84C207.177 245.84 207.663 245.84 208.023 245.84C208.362 245.84 208.531 245.851 208.531 245.851Z" fill="#263238"/>
<path d="M125.201 282.112C125.222 282.165 124.852 282.292 124.302 282.705C123.762 283.107 123.053 283.859 122.661 285.002C122.259 286.113 122.259 287.701 123.254 288.939C124.185 290.167 125.985 291.035 127.742 290.633C129.488 290.199 130.705 288.611 130.991 287.097C131.319 285.542 130.599 284.134 129.742 283.319C128.874 282.483 127.911 282.133 127.244 282.017C126.577 281.901 126.186 281.943 126.175 281.901C126.164 281.879 126.556 281.752 127.265 281.805C127.974 281.858 129.022 282.165 129.996 283.044C130.472 283.478 130.927 284.049 131.224 284.769C131.509 285.489 131.636 286.346 131.478 287.203C131.192 288.897 129.869 290.675 127.858 291.183C125.836 291.638 123.857 290.654 122.841 289.267C122.312 288.579 122.037 287.754 121.973 286.981C121.91 286.208 122.068 285.489 122.291 284.885C122.767 283.668 123.571 282.917 124.175 282.546C124.789 282.144 125.191 282.091 125.201 282.112Z" fill="#263238"/>
<path d="M120.735 309.536C120.671 309.547 120.29 308.372 119.931 306.403C119.592 304.456 119.285 301.608 120.1 298.592C120.925 295.575 122.915 293.321 124.662 292.305C125.54 291.786 126.323 291.511 126.874 291.405C127.424 291.289 127.742 291.289 127.742 291.321C127.773 291.437 126.493 291.543 124.863 292.633C123.243 293.691 121.412 295.861 120.618 298.74C119.846 301.63 120.068 304.403 120.312 306.35C120.566 308.308 120.82 309.515 120.735 309.536Z" fill="#263238"/>
<path d="M124.587 265.76C124.661 265.834 123.825 266.564 123.031 268.099C122.227 269.602 121.571 272.026 122.142 274.576C122.735 277.127 124.386 279.032 125.762 280.027C127.149 281.064 128.218 281.361 128.175 281.456C128.165 281.488 127.89 281.446 127.424 281.297C126.948 281.149 126.281 280.853 125.54 280.355C124.058 279.392 122.248 277.434 121.613 274.703C120.999 271.973 121.772 269.422 122.703 267.908C123.158 267.136 123.635 266.585 123.995 266.236C124.344 265.897 124.566 265.739 124.587 265.76Z" fill="#263238"/>
<path d="M123.625 286.949C123.635 287.119 120.957 287.193 117.888 288.241C114.808 289.257 112.628 290.823 112.532 290.675C112.437 290.58 114.522 288.77 117.708 287.711C120.883 286.642 123.635 286.822 123.625 286.949Z" fill="#263238"/>
<g opacity="0.3">
<g opacity="0.3">
<path opacity="0.3" d="M89.4268 351.481C99.5559 359.314 112.627 363.251 125.403 362.33C122.725 374.777 120.058 387.214 117.38 399.661C116.671 402.984 116.004 406.678 117.74 409.589C120.174 413.685 125.837 414.087 130.589 414.024C135.892 413.95 141.417 413.823 146.116 411.367C152.773 407.885 156.351 400.529 158.933 393.48C161.516 386.431 163.749 378.873 169.063 373.571C175.085 380.472 183.489 385.266 192.507 386.917C195.163 387.404 198.159 387.552 200.286 385.891C202.392 384.24 203.006 381.212 202.466 378.588C201.927 375.963 200.445 373.645 198.995 371.401C193.83 363.389 188.665 355.376 183.51 347.375C181.414 344.125 179.118 340.696 175.582 339.151C172.799 337.933 169.645 338.06 166.618 338.23C141.332 339.701 116.194 343.501 91.6071 349.576" fill="black"/>
</g>
</g>
<g opacity="0.3">
<g opacity="0.3">
<path opacity="0.3" d="M172.206 232.377C165.94 248.931 142.549 252.73 134.336 268.406C126.218 283.912 136.283 304.434 127.911 319.803C124.81 325.497 119.497 329.741 116.47 335.467C114.427 339.331 113.379 343.914 110.087 346.782C106.256 350.127 100.318 350.063 95.7139 347.904C91.1098 345.745 87.5641 341.871 84.2935 337.986C78.1547 330.705 72.3863 322.83 69.5179 313.738C64.5751 298.094 69.1052 280.419 79.012 267.347C88.9189 254.276 103.642 245.47 119.169 240.199C134.696 234.928 151.133 232.917 167.454 231.393" fill="black"/>
</g>
</g>
<path d="M96.9521 188.844C99.3865 185.224 102.551 182.017 106.446 180.038C110.341 178.069 114.988 177.413 119.137 178.768C123.286 180.123 126.789 183.637 127.625 187.913C128.292 191.3 127.392 195.099 129.139 198.073C131.15 201.503 136.008 202.593 137.723 206.181C138.749 208.351 138.337 210.976 137.215 213.093C136.082 215.209 134.325 216.903 132.568 218.533C133.637 219.284 134.717 220.068 135.468 221.137C136.22 222.206 136.59 223.634 136.082 224.841C135.553 226.111 134.219 226.841 132.949 227.381C127.085 229.869 120.449 230.493 114.226 229.138C112.553 228.778 110.638 228.323 109.262 229.339" fill="#46415A"/>
<path d="M139.322 201.397L135.903 211.77L159.051 224.905L135.786 225.656L137.522 244.528L182.336 233.531C182.336 233.52 185.024 215.241 139.322 201.397L136.104 200.646C134.94 200.37 133.987 199.545 133.543 198.433C133.193 197.555 132.548 196.835 131.712 196.391L127.891 194.401L127.912 197.428L130.007 199.894L129.669 205.747C129.489 208.34 131.214 210.669 133.733 211.272L135.871 211.78" fill="#FFBE9D"/>
<path d="M88.6337 238.865C87.7129 238.865 79.1714 240.94 74.2815 247.163C69.4021 253.387 62.3213 276.725 62.3213 276.725L80.3357 279.837L88.1045 299.354C88.1045 299.354 134.093 293.332 131.648 290.908C129.203 288.484 124.186 284.748 124.186 284.748L134.792 249.492L147.514 242.633L143.238 225.021L117.645 228.482L88.6337 238.865Z" fill="#FAFAFA"/>
<path d="M82.3532 271.657C83.4515 266.907 84.2219 263.029 84.0738 262.994C83.9257 262.96 82.9153 266.783 81.8169 271.533C80.7185 276.283 79.9482 280.161 80.0963 280.195C80.2443 280.229 81.2548 276.407 82.3532 271.657Z" fill="#263238"/>
<path d="M134.124 395.163L120.725 437.436L136.887 439.055L152.054 402.339L134.124 395.163Z" fill="#FFBE9D"/>
<path d="M145.947 422.608L138.252 441.691C138.252 441.691 155.07 455.927 153.991 459.589L116.448 445.999L127.223 415.77L145.947 422.608Z" fill="#3936DB"/>
<path d="M127.233 435.87C126.439 435.806 125.635 436.441 125.54 437.235C125.444 438.029 126.08 438.844 126.873 438.928C127.667 439.003 128.652 438.272 128.662 437.468C128.673 436.663 127.868 435.753 127.074 435.859" fill="#E0E0E0"/>
<path d="M116.448 445.999L117.655 442.993L153.197 457.155C153.197 457.155 154.604 458.488 153.991 459.6L116.448 445.999Z" fill="#E0E0E0"/>
<path d="M138.929 441.723C138.855 441.903 137.913 441.659 136.791 441.913C135.669 442.146 134.918 442.771 134.77 442.644C134.611 442.548 135.288 441.553 136.643 441.257C137.998 440.95 139.035 441.575 138.929 441.723Z" fill="#263238"/>
<path d="M142.273 444.782C142.252 444.972 141.342 444.993 140.442 445.544C139.521 446.062 139.066 446.846 138.886 446.771C138.706 446.74 138.961 445.618 140.104 444.951C141.226 444.295 142.337 444.602 142.273 444.782Z" fill="#263238"/>
<path d="M142.803 450.307C142.623 450.285 142.697 449.28 143.533 448.444C144.359 447.608 145.364 447.523 145.396 447.703C145.449 447.893 144.698 448.232 144.02 448.92C143.332 449.597 142.993 450.349 142.803 450.307Z" fill="#263238"/>
<path d="M140.2 437.182C140.062 437.32 139.31 436.759 138.252 436.463C137.194 436.134 136.262 436.187 136.23 435.997C136.178 435.827 137.204 435.436 138.453 435.806C139.692 436.177 140.348 437.066 140.2 437.182Z" fill="#263238"/>
<path d="M141.681 433.298C141.66 433.372 140.887 433.224 139.808 432.61C139.268 432.303 138.654 431.869 138.061 431.297C137.765 431.012 137.469 430.683 137.194 430.334C137.056 430.165 136.897 429.974 136.781 429.689C136.643 429.424 136.707 428.895 137.045 428.683C137.342 428.461 137.723 428.461 137.998 428.556C138.273 428.651 138.485 428.789 138.665 428.905C139.046 429.159 139.385 429.435 139.691 429.731C140.295 430.313 140.729 430.938 141.014 431.498C141.597 432.62 141.639 433.414 141.565 433.425C141.459 433.457 141.247 432.726 140.602 431.742C140.284 431.255 139.84 430.705 139.268 430.186C138.982 429.932 138.665 429.689 138.305 429.466C137.945 429.223 137.606 429.096 137.437 429.233C137.374 429.286 137.363 429.308 137.405 429.456C137.448 429.593 137.575 429.763 137.702 429.932C137.956 430.271 138.22 430.578 138.485 430.863C139.025 431.424 139.564 431.869 140.051 432.218C141.036 432.896 141.724 433.203 141.681 433.298Z" fill="#263238"/>
<path d="M141.353 433.478C141.279 433.478 141.152 432.694 141.512 431.477C141.692 430.874 142.009 430.186 142.517 429.509C142.771 429.17 143.068 428.842 143.406 428.545C143.756 428.249 144.211 427.857 144.952 428.027C145.333 428.143 145.534 428.545 145.544 428.831C145.576 429.128 145.523 429.36 145.492 429.593C145.407 430.059 145.238 430.482 145.036 430.863C144.634 431.615 144.063 432.165 143.533 432.515C142.443 433.224 141.607 433.16 141.607 433.097C141.575 432.98 142.348 432.864 143.248 432.134C143.692 431.774 144.158 431.255 144.486 430.578C144.645 430.239 144.772 429.868 144.846 429.477C144.931 429.053 144.899 428.683 144.729 428.672C144.539 428.598 144.116 428.789 143.851 429.053C143.533 429.318 143.258 429.604 143.015 429.9C142.539 430.493 142.2 431.107 141.967 431.647C141.512 432.726 141.459 433.488 141.353 433.478Z" fill="#263238"/>
<path d="M184.981 355.376L204.986 390.146L221.349 379.646L201.26 344.348L184.981 355.376Z" fill="#FFBE9D"/>
<path d="M215.708 369.718L226.038 387.51C226.038 387.51 247.598 382.98 249.831 386.092L216.046 407.366L198.805 380.302L215.708 369.718Z" fill="#3936DB"/>
<path d="M214.67 392.622C214.13 393.215 214.141 394.231 214.713 394.803C215.284 395.364 216.321 395.364 216.872 394.781C217.422 394.199 217.443 392.972 216.819 392.474C216.194 391.977 214.977 392.051 214.575 392.739" fill="#E0E0E0"/>
<path d="M216.036 407.355L214.406 404.561L247.408 385.213C247.408 385.213 249.324 384.917 249.821 386.092L216.036 407.355Z" fill="#E0E0E0"/>
<path d="M226.472 386.991C226.567 387.161 225.794 387.754 225.318 388.791C224.81 389.817 224.842 390.802 224.651 390.823C224.482 390.886 224.101 389.743 224.704 388.494C225.297 387.245 226.419 386.822 226.472 386.991Z" fill="#263238"/>
<path d="M230.938 386.23C231.076 386.367 230.536 387.097 230.42 388.145C230.272 389.193 230.6 390.04 230.43 390.135C230.293 390.262 229.573 389.362 229.742 388.061C229.912 386.748 230.843 386.071 230.938 386.23Z" fill="#263238"/>
<path d="M235.627 389.204C235.5 389.331 234.748 388.653 234.6 387.478C234.442 386.304 235.002 385.467 235.161 385.552C235.341 385.626 235.14 386.431 235.278 387.383C235.383 388.357 235.775 389.087 235.627 389.204Z" fill="#263238"/>
<path d="M223.667 383.202C223.688 383.393 222.789 383.647 221.9 384.292C220.989 384.928 220.46 385.69 220.291 385.605C220.122 385.541 220.439 384.494 221.508 383.742C222.567 382.98 223.667 383.022 223.667 383.202Z" fill="#263238"/>
<path d="M221.519 379.646C221.561 379.71 220.979 380.228 219.825 380.704C219.254 380.937 218.534 381.16 217.708 381.276C217.296 381.34 216.862 381.371 216.417 381.371C216.195 381.371 215.951 381.382 215.655 381.297C215.369 381.244 214.988 380.863 215.031 380.472C215.041 380.101 215.274 379.794 215.517 379.635C215.761 379.466 215.994 379.392 216.205 379.329C216.639 379.18 217.073 379.085 217.486 379.032C218.312 378.916 219.074 378.958 219.688 379.074C220.926 379.307 221.582 379.752 221.55 379.826C221.508 379.932 220.799 379.646 219.624 379.551C219.042 379.498 218.333 379.519 217.581 379.646C217.2 379.72 216.809 379.815 216.417 379.953C216.004 380.08 215.697 380.271 215.697 380.493C215.697 380.577 215.708 380.599 215.856 380.662C215.994 380.715 216.195 380.715 216.417 380.715C216.84 380.726 217.243 380.704 217.634 380.662C218.407 380.588 219.095 380.429 219.666 380.26C220.799 379.911 221.466 379.551 221.519 379.646Z" fill="#263238"/>
<path d="M221.455 380.016C221.413 380.08 220.714 379.688 219.984 378.662C219.624 378.154 219.275 377.476 219.053 376.661C218.947 376.259 218.862 375.825 218.841 375.359C218.83 374.904 218.788 374.301 219.381 373.825C219.709 373.602 220.153 373.687 220.386 373.856C220.64 374.015 220.788 374.195 220.947 374.364C221.254 374.724 221.497 375.116 221.667 375.507C222.016 376.291 222.101 377.074 222.048 377.709C221.942 379 221.37 379.635 221.328 379.582C221.222 379.529 221.593 378.852 221.572 377.698C221.561 377.127 221.434 376.439 221.106 375.772C220.947 375.433 220.725 375.105 220.46 374.809C220.185 374.481 219.868 374.28 219.751 374.396C219.582 374.502 219.465 374.946 219.508 375.328C219.529 375.74 219.582 376.132 219.666 376.513C219.836 377.254 220.111 377.899 220.397 378.408C220.958 379.434 221.529 379.932 221.455 380.016Z" fill="#263238"/>
<path d="M125.445 350.476L164.723 323.761L189.501 371.994L212.035 359.801C212.035 359.801 186.093 296.539 176.778 294.496C171.56 293.353 111.717 304.784 111.717 304.784L105.028 301.418L88.1036 299.354L87.0241 302.095C81.044 317.231 81.7319 334.187 88.908 348.793L89.7336 350.465H125.445V350.476Z" fill="#46415A"/>
<path d="M111.654 317.072C111.95 318.395 144.423 348.804 144.423 348.804L125.689 411.769L153.652 417.114L181.732 341.268L130.409 290.918L106.976 300.783L111.654 317.072Z" fill="#46415A"/>
<path d="M145.224 337.345C156.07 329.97 164.794 323.888 164.709 323.763C164.623 323.637 155.761 329.514 144.914 336.89C134.067 344.266 125.344 350.347 125.429 350.473C125.515 350.599 134.377 344.721 145.224 337.345Z" fill="#455A64"/>
<path d="M184.886 363.018C184.854 363.04 184.515 362.521 183.933 361.558C183.351 360.605 182.546 359.208 181.562 357.462C179.604 353.979 177 349.111 174.248 343.67C171.486 338.23 169.073 333.277 167.369 329.657C166.511 327.847 165.834 326.386 165.379 325.36C164.924 324.344 164.691 323.761 164.723 323.751C164.754 323.73 165.051 324.28 165.569 325.264C166.12 326.344 166.839 327.762 167.707 329.477C169.549 333.128 172.015 338.008 174.735 343.406C177.487 348.836 180.038 353.725 181.901 357.261C182.8 358.954 183.552 360.362 184.123 361.431C184.642 362.436 184.917 362.997 184.886 363.018Z" fill="#455A64"/>
<path d="M147.294 344.294C149.09 340.636 150.435 337.617 150.298 337.55C150.162 337.483 148.596 340.394 146.8 344.051C145.004 347.709 143.659 350.728 143.796 350.795C143.932 350.862 145.498 347.951 147.294 344.294Z" fill="#455A64"/>
<path d="M62.3209 276.736L56.0127 300.19C55.1977 303.228 55.5682 306.456 57.0605 309.219C59.696 314.098 65.2633 316.628 70.6719 315.368L121 302.974L115.74 292.527L76.091 295.967L80.3353 279.847L62.3209 276.736Z" fill="#FFBE9D"/>
<path d="M84.6426 312.341L85.2988 308.933L112.574 304.032L120.502 261.981L171.158 255.948L162.648 300.836L84.6426 312.341Z" fill="#FF8E26"/>
<path d="M146.177 282.32C146.473 280.787 145.637 279.337 144.311 279.082C142.986 278.826 141.671 279.861 141.376 281.394C141.08 282.926 141.916 284.376 143.242 284.632C144.567 284.887 145.882 283.852 146.177 282.32Z" fill="#EBEBEB"/>
<path d="M92.0625 191.744L92.1578 194.782L93.3009 240.305C93.4279 245.586 98.0849 249.682 103.737 249.502C109.452 249.312 114.046 244.835 113.993 239.5C113.94 233.891 113.993 227.995 113.993 227.995C113.993 227.995 121.201 226.715 122.587 217.273C123.275 212.585 122.947 204.9 122.482 198.624C122.058 192.972 117.031 188.812 111.4 189.479L92.0625 191.744Z" fill="#FFBE9D"/>
<path d="M118.83 203.863C118.861 204.498 118.343 205.049 117.676 205.091C117.009 205.133 116.448 204.657 116.416 204.011C116.385 203.376 116.903 202.826 117.57 202.773C118.237 202.752 118.808 203.228 118.83 203.863Z" fill="#263238"/>
<path d="M120.862 202.635C120.714 202.794 119.793 202.127 118.491 202.149C117.19 202.149 116.248 202.826 116.099 202.667C116.025 202.593 116.173 202.307 116.586 202C116.988 201.693 117.687 201.397 118.491 201.386C119.306 201.386 119.984 201.672 120.386 201.969C120.799 202.276 120.936 202.561 120.862 202.635Z" fill="#263238"/>
<path d="M106.002 204.339C106.033 204.975 105.515 205.525 104.848 205.567C104.181 205.61 103.62 205.133 103.588 204.488C103.557 203.853 104.075 203.302 104.742 203.249C105.409 203.218 105.97 203.694 106.002 204.339Z" fill="#263238"/>
<path d="M108.087 203.027C107.939 203.186 107.018 202.519 105.716 202.54C104.414 202.54 103.472 203.218 103.324 203.059C103.25 202.985 103.398 202.699 103.811 202.392C104.213 202.085 104.912 201.789 105.716 201.778C106.531 201.778 107.208 202.064 107.611 202.36C108.023 202.667 108.161 202.953 108.087 203.027Z" fill="#263238"/>
<path d="M112.914 212.616C112.903 212.542 113.718 212.394 115.02 212.214C115.348 212.172 115.666 212.108 115.719 211.875C115.793 211.632 115.655 211.283 115.486 210.891C115.168 210.087 114.829 209.25 114.47 208.372C113.062 204.784 112.046 201.841 112.183 201.789C112.332 201.736 113.58 204.593 114.988 208.181C115.327 209.06 115.655 209.907 115.962 210.711C116.089 211.092 116.311 211.515 116.152 212.013C116.068 212.267 115.824 212.447 115.613 212.5C115.401 212.563 115.21 212.574 115.052 212.584C113.739 212.669 112.924 212.69 112.914 212.616Z" fill="#263238"/>
<path d="M113.993 227.985C113.993 227.985 107.663 228.472 101.334 224.767C101.334 224.767 104.467 231.202 113.887 230.207L113.993 227.985Z" fill="#AA6550"/>
<path d="M108.605 200.889C108.457 201.238 107.176 201.005 105.642 201.122C104.107 201.206 102.858 201.598 102.667 201.27C102.583 201.111 102.816 200.794 103.324 200.476C103.832 200.159 104.636 199.873 105.557 199.809C106.478 199.756 107.303 199.936 107.854 200.19C108.404 200.423 108.669 200.72 108.605 200.889Z" fill="#263238"/>
<path d="M120.323 198.127C120.1 198.423 119.201 198.127 118.121 198.127C117.042 198.084 116.131 198.349 115.92 198.042C115.824 197.894 115.962 197.597 116.364 197.312C116.756 197.026 117.412 196.793 118.153 196.804C118.894 196.814 119.539 197.079 119.92 197.375C120.291 197.671 120.418 197.978 120.323 198.127Z" fill="#263238"/>
<path d="M112.775 217.316C112.405 217.421 112.013 217.294 111.643 217.199C111.272 217.093 110.923 216.998 110.627 216.903C110.33 216.808 109.992 216.67 109.632 216.543C109.283 216.395 108.88 216.268 108.658 215.961C108.436 215.664 108.478 215.156 108.986 214.701C109.473 214.257 110.457 213.939 111.495 214.289C112.532 214.638 113.135 215.474 113.252 216.12C113.4 216.786 113.135 217.22 112.775 217.316Z" fill="#AA6550"/>
<path d="M112.955 217.21C112.828 217.295 112.193 216.003 110.68 215.612C109.156 215.22 107.981 216.056 107.917 215.919C107.875 215.866 108.087 215.569 108.605 215.305C109.113 215.04 109.939 214.85 110.817 215.072C111.696 215.294 112.331 215.866 112.649 216.342C112.966 216.818 113.019 217.178 112.955 217.21Z" fill="#263238"/>
<path d="M102.954 185.605C105.97 190.093 105.197 196.719 101.249 200.402C98.995 202.498 95.6398 204.138 95.4176 207.208C95.1635 210.605 99.1009 213.146 99.1115 216.564C99.122 220.068 95.0683 222.301 94.285 225.72C93.65 228.472 95.2905 231.223 97.1957 233.309C99.1009 235.394 101.387 237.235 102.53 239.818C103.79 242.665 103.43 246.02 102.213 248.889C100.985 251.746 98.9739 254.191 96.8888 256.509C94.0734 255.504 91.1415 254.847 88.1674 254.572C88.3579 253.45 88.5378 252.328 88.7283 251.196C88.7918 252.508 87.6911 253.641 86.4527 254.054C85.2143 254.466 83.8596 254.308 82.5577 254.107C78.5886 253.482 74.683 252.477 70.915 251.111C72.5238 249.492 74.1644 247.841 75.1699 245.798C76.1754 243.745 76.44 241.194 75.2863 239.236C74.3549 237.659 72.6403 236.643 71.7829 235.013C70.5023 232.578 71.5607 229.488 73.3812 227.424C75.2017 225.36 77.6784 224.016 79.8376 222.322C82.0073 220.629 83.9972 218.342 84.1771 215.591C84.3994 212.024 81.5204 208.785 81.8803 205.229C82.2825 201.185 86.5585 198.709 88.2414 195.015C89.4586 192.337 89.2893 189.035 91.1627 186.759C92.5386 185.076 94.8354 184.314 97.0158 184.431C99.1855 184.547 101.26 185.436 103.112 186.579" fill="#46415A"/>
<path d="M114.787 229.001C113.083 229.943 113.189 232.525 114.215 234.166C115.253 235.806 116.914 236.981 117.941 238.632C119.772 241.585 118.978 245.861 116.216 247.957L120.28 249.492L121.169 248.994L123.667 247.587L122.492 250.466H125.096C127.837 250.497 130.526 248.878 131.785 246.454C133.045 244.02 132.812 240.897 131.214 238.675C130.145 237.193 128.483 236.018 128.123 234.219C127.689 232.06 129.319 230.102 130.124 228.048C131.457 224.619 130.24 220.364 127.287 218.173" fill="#46415A"/>
<path d="M34.5783 143.342C35.0546 143.575 35.3828 144.052 35.3828 144.623V151.672C35.3828 152.117 35.1711 152.53 34.8218 152.805C34.4725 153.069 34.0068 153.154 33.5834 153.038C32.4615 152.72 31.202 152.911 30.133 153.567C29.1486 154.17 28.4607 155.08 28.249 156.086C28.0373 157.081 28.3019 158.203 28.9687 159.166C29.6779 160.193 30.768 160.912 31.8794 161.092C34.155 161.452 36.6846 159.812 37.4255 157.504C37.6584 156.763 38.4628 156.351 39.2037 156.583C39.9657 156.827 40.3573 157.621 40.1245 158.362C38.9708 161.981 35.0758 164.458 31.4348 163.886C29.5508 163.59 27.8044 162.447 26.6402 160.775C25.5394 159.176 25.116 157.261 25.4759 155.514C25.8464 153.747 27 152.159 28.6618 151.154C29.8578 150.423 31.2126 150.053 32.5462 150.063V144.634C32.5462 143.851 33.1812 143.215 33.9645 143.215C34.1867 143.205 34.3984 143.258 34.5783 143.342Z" fill="#FF8E26"/>
<path d="M33.8147 141.514C34.4517 141.498 34.9549 140.968 34.9386 140.331C34.9224 139.694 34.3929 139.191 33.7559 139.207C33.1189 139.224 32.6157 139.753 32.632 140.39C32.6482 141.027 33.1777 141.53 33.8147 141.514Z" fill="#FF8E26"/>
<path d="M67.1674 178.122C67.178 178.154 66.8181 178.175 66.236 178.419C65.6644 178.651 64.8706 179.159 64.2673 180.101C63.9709 180.567 63.7381 181.139 63.664 181.784C63.6005 182.419 63.6852 183.129 64.0133 183.774C64.6377 185.065 66.1195 186.177 67.8024 186.092C69.4853 185.976 70.8295 184.695 71.2952 183.34C71.5493 182.663 71.5598 181.943 71.4117 181.319C71.2635 180.694 70.9565 180.154 70.6073 179.72C69.9087 178.852 69.0514 178.44 68.4587 178.281C67.8554 178.112 67.4955 178.133 67.4955 178.101C67.4955 178.09 67.5802 178.08 67.7495 178.08C67.8342 178.069 67.94 178.08 68.0565 178.101C68.1835 178.112 68.3211 178.133 68.4798 178.175C69.1043 178.313 70.004 178.704 70.766 179.593C71.1365 180.038 71.4752 180.599 71.6445 181.266C71.8139 181.932 71.8033 182.705 71.5492 183.435C71.3058 184.166 70.8295 184.875 70.1839 185.415C69.5488 185.965 68.7127 186.336 67.8024 186.399C66.9028 186.441 66.0243 186.166 65.3257 185.7C64.6166 185.245 64.0662 184.6 63.7381 183.901C63.3888 183.203 63.3041 182.441 63.3888 181.763C63.4841 181.075 63.7487 180.482 64.0662 179.996C64.7118 179.022 65.5692 178.524 66.1725 178.313C66.3206 178.249 66.4582 178.217 66.5852 178.196C66.7017 178.165 66.8075 178.143 66.8922 178.143C67.0721 178.122 67.1568 178.112 67.1674 178.122Z" fill="#263238"/>
<path d="M77.4556 188.368C77.4556 188.4 77.2333 188.421 76.8735 188.569C76.5242 188.717 76.0267 189.045 75.6669 189.627C75.2964 190.199 75.1059 191.088 75.5187 191.892C75.8997 192.686 76.8205 193.374 77.8578 193.321C78.8845 193.247 79.7206 192.464 80.0064 191.628C80.3239 190.77 80.0276 189.913 79.5936 189.394C79.1597 188.855 78.6305 188.59 78.2706 188.484C77.9001 188.378 77.6673 188.378 77.6673 188.347C77.6673 188.336 77.8896 188.283 78.2918 188.368C78.6834 188.442 79.2655 188.696 79.7524 189.257C79.9958 189.532 80.2075 189.892 80.3239 190.326C80.4298 190.749 80.4298 191.247 80.271 191.723C79.9641 192.654 79.0538 193.543 77.8684 193.628C76.6829 193.681 75.6774 192.908 75.2647 192.019C75.0424 191.575 74.9895 191.077 75.0424 190.643C75.1059 190.209 75.2752 189.828 75.4763 189.521C75.8997 188.908 76.4395 188.59 76.8205 188.463C77.2333 188.325 77.4556 188.347 77.4556 188.368Z" fill="#263238"/>
<path d="M65.453 157.144C65.453 157.144 65.4424 156.964 65.453 156.615C65.4636 156.255 65.4636 155.737 65.4848 155.059C65.4954 154.721 65.4954 154.339 65.506 153.916C65.4954 153.493 65.4424 153.038 65.4107 152.54C65.3684 152.043 65.326 151.503 65.2837 150.931C65.2731 150.646 65.2308 150.349 65.1673 150.053C65.1143 149.757 65.0614 149.439 64.9979 149.121C64.6275 146.56 63.6749 143.48 62.0661 140.178C60.4361 136.886 57.9911 133.383 54.5195 130.303C54.0856 129.922 53.641 129.541 53.1965 129.149C52.7308 128.789 52.2333 128.45 51.7464 128.091C51.503 127.911 51.249 127.741 51.0055 127.561C50.7621 127.381 50.5081 127.201 50.2329 127.053C49.6931 126.746 49.1533 126.429 48.6135 126.111C48.3383 125.953 48.0631 125.794 47.7879 125.635C47.5022 125.508 47.2058 125.37 46.9094 125.233C46.3273 124.968 45.7346 124.693 45.1313 124.428C44.528 124.174 43.8824 123.994 43.2579 123.762C42.9404 123.656 42.6228 123.55 42.3053 123.433C42.1465 123.381 41.9878 123.317 41.829 123.275L41.3315 123.158C40.0085 122.862 38.6643 122.481 37.2566 122.364C36.5581 122.29 35.8595 122.163 35.1504 122.121C34.4412 122.1 33.7215 122.079 32.9912 122.068C32.6313 122.068 32.2609 122.036 31.901 122.058C31.5411 122.089 31.1707 122.11 30.8002 122.142C30.0699 122.206 29.329 122.237 28.5881 122.322C27.1275 122.597 25.614 122.777 24.1533 123.254C23.7829 123.359 23.4124 123.465 23.042 123.561C22.8621 123.613 22.6715 123.656 22.4916 123.719L21.9518 123.931C21.2321 124.217 20.5018 124.492 19.7715 124.778C19.0517 125.095 18.3637 125.476 17.6546 125.826C17.3053 126.016 16.9349 126.164 16.6068 126.376L15.5907 127.011C14.2041 127.815 12.9552 128.853 11.6639 129.858C11.0712 130.419 10.4679 130.98 9.87519 131.552L9.42007 131.975C9.28247 132.123 9.14488 132.282 9.00728 132.441L8.18171 133.372L7.35614 134.314L6.61524 135.33L5.87435 136.357L5.5039 136.875C5.38747 137.055 5.29221 137.235 5.18637 137.426C4.763 138.156 4.32905 138.897 3.90568 139.627C3.54581 140.4 3.19653 141.183 2.83667 141.967C1.52422 145.142 0.688069 148.56 0.359957 152.074C0.127104 155.599 0.434047 159.113 1.23845 162.447C1.4713 163.273 1.70416 164.098 1.92642 164.924C2.23337 165.718 2.54031 166.511 2.84725 167.295L3.08011 167.887L3.36588 168.448L3.93743 169.57L4.50898 170.692L5.17579 171.751L5.84259 172.798L6.18129 173.317L6.56232 173.804C7.07037 174.46 7.56782 175.106 8.07587 175.751C9.1978 176.937 10.2668 178.165 11.5157 179.17L12.4154 179.964C12.7118 180.229 13.0505 180.44 13.368 180.673C14.0136 181.128 14.6381 181.615 15.2943 182.038C15.9717 182.43 16.6491 182.822 17.3159 183.213L17.8134 183.51C17.9827 183.594 18.1626 183.668 18.332 183.753C18.6813 183.912 19.0306 184.071 19.3798 184.229C20.7452 184.928 22.2058 185.341 23.6135 185.838C24.3333 186.05 25.053 186.187 25.7727 186.367C26.1326 186.452 26.4924 186.537 26.8417 186.621C27.2016 186.696 27.5615 186.727 27.9213 186.78C28.641 186.875 29.3502 186.971 30.0593 187.055C30.7685 187.119 31.4776 187.108 32.1868 187.14C33.5945 187.246 34.9704 187.066 36.3358 186.981L36.8438 186.95C37.0132 186.928 37.1825 186.897 37.3413 186.865C37.6694 186.812 38.0081 186.748 38.3362 186.695C38.9924 186.568 39.6487 186.484 40.2943 186.336C40.9293 186.156 41.5538 185.986 42.1783 185.806C42.4852 185.722 42.8028 185.637 43.1097 185.552C43.4061 185.436 43.7024 185.33 43.9988 185.214C44.5915 184.981 45.1736 184.759 45.7452 184.536C46.0415 184.43 46.3167 184.293 46.5813 184.155C46.8565 184.018 47.1317 183.88 47.3963 183.742C47.9361 183.467 48.4759 183.213 48.9945 182.928C49.492 182.61 49.9895 182.303 50.4763 181.986C54.3819 179.477 57.3455 176.408 59.4624 173.402C59.727 173.031 60.0021 172.661 60.2562 172.301C60.4784 171.92 60.7007 171.539 60.9124 171.168C61.1241 170.798 61.3358 170.438 61.5474 170.078C61.6533 169.898 61.7591 169.729 61.8544 169.549C61.9391 169.369 62.0237 169.189 62.1084 169.009C62.4365 168.289 62.7541 167.612 63.0504 166.956C63.3362 166.3 63.5267 165.633 63.749 165.03C63.8548 164.723 63.9607 164.426 64.0559 164.14C64.1618 163.855 64.257 163.569 64.3099 163.283C64.4475 162.722 64.564 162.204 64.6804 161.717C64.7862 161.23 64.9132 160.785 64.9873 160.372C65.0402 159.96 65.0932 159.579 65.1461 159.24C65.2413 158.573 65.3154 158.055 65.3578 157.695C65.4213 157.324 65.453 157.144 65.453 157.144C65.453 157.144 65.4424 157.324 65.4001 157.674C65.3578 158.033 65.2943 158.541 65.2202 159.219C65.1778 159.557 65.1355 159.939 65.0826 160.362C65.0085 160.775 64.8921 161.23 64.7862 161.717C64.6698 162.204 64.5534 162.733 64.4264 163.294C64.3734 163.58 64.2888 163.865 64.1829 164.151C64.0877 164.437 63.9818 164.744 63.876 165.051C63.6537 165.665 63.4738 166.331 63.188 166.998C62.8916 167.654 62.5741 168.342 62.246 169.073C62.1613 169.253 62.0767 169.433 62.0026 169.623C61.9179 169.803 61.8015 169.972 61.7062 170.163C61.4945 170.523 61.2934 170.883 61.0712 171.253C60.8595 171.624 60.6372 172.005 60.4149 172.396C60.1609 172.767 59.8963 173.126 59.6211 173.508C57.5043 176.535 54.5407 179.636 50.6139 182.176C50.1165 182.494 49.619 182.8 49.1216 183.129C48.6029 183.414 48.0525 183.679 47.5127 183.954C47.2376 184.092 46.9624 184.229 46.6872 184.367C46.412 184.505 46.1368 184.653 45.8404 184.759C45.2583 184.981 44.6762 185.214 44.0835 185.447C43.7871 185.563 43.4907 185.679 43.1838 185.796C42.8768 185.881 42.5593 185.965 42.2524 186.06C41.6279 186.24 40.9929 186.41 40.3578 186.59C39.7122 186.748 39.0559 186.833 38.3891 186.96C38.061 187.024 37.7223 187.077 37.3942 187.14C37.2249 187.172 37.0555 187.204 36.8862 187.225L36.3781 187.267C35.0128 187.352 33.6156 187.532 32.1974 187.436C31.4882 187.405 30.7685 187.426 30.0593 187.352C29.3502 187.256 28.6305 187.172 27.9001 187.077C27.5403 187.024 27.1698 187.002 26.81 186.918C26.4501 186.833 26.0902 186.748 25.7304 186.664C25.0107 186.484 24.2803 186.346 23.55 186.135C22.1317 185.626 20.6605 185.224 19.2846 184.515C18.9353 184.356 18.586 184.198 18.2262 184.028C18.0462 183.944 17.8663 183.87 17.6969 183.785L17.1889 183.488C16.5115 183.097 15.8341 182.705 15.1461 182.303C14.4793 181.88 13.8549 181.382 13.1986 180.927C12.8811 180.684 12.5318 180.472 12.2355 180.207L11.3252 179.414C10.0657 178.397 8.98611 177.159 7.8536 175.963C7.34556 175.307 6.83751 174.661 6.32947 174.005L5.94844 173.508L5.60974 172.978L4.93235 171.92L4.25496 170.851L3.68341 169.718L3.11186 168.586L2.82609 168.014L2.59323 167.422C2.28629 166.628 1.96876 165.823 1.66182 165.019C1.42897 164.193 1.19611 163.357 0.963259 162.521C0.148273 159.145 -0.148086 155.61 0.0847671 152.053C0.412879 148.508 1.25962 145.057 2.58265 141.85C2.94251 141.067 3.30238 140.273 3.66224 139.49C4.09619 138.749 4.53015 138.008 4.95352 137.267C5.05936 137.087 5.1652 136.897 5.28163 136.717L5.65208 136.198L6.39297 135.161L7.13387 134.134L7.97003 133.182L8.7956 132.24C8.93319 132.081 9.07079 131.922 9.20838 131.774L9.6635 131.351C10.2668 130.779 10.8701 130.218 11.4734 129.646C12.7753 128.641 14.0348 127.593 15.4425 126.778L16.4692 126.132C16.8079 125.921 17.1783 125.762 17.5276 125.572C18.2473 125.222 18.9459 124.831 19.6656 124.513C20.4065 124.227 21.1368 123.942 21.8671 123.656L22.4175 123.444C22.5974 123.381 22.788 123.338 22.9785 123.285C23.3489 123.179 23.73 123.074 24.1004 122.968C25.5716 122.491 27.0957 122.312 28.567 122.036C29.3079 121.941 30.0593 121.92 30.8002 121.856C31.1707 121.825 31.5411 121.804 31.901 121.772C32.2714 121.751 32.6313 121.782 33.0018 121.793C33.7321 121.814 34.4624 121.835 35.1821 121.856C35.9018 121.899 36.6004 122.026 37.3095 122.11C38.7278 122.237 40.072 122.619 41.4056 122.925L41.9031 123.042C42.0724 123.084 42.2312 123.148 42.39 123.201C42.7075 123.306 43.0356 123.423 43.3531 123.529C43.9882 123.762 44.6338 123.942 45.2371 124.196C45.8404 124.471 46.4332 124.746 47.0259 125.011C47.3222 125.148 47.6186 125.286 47.9044 125.413C48.1901 125.572 48.4547 125.73 48.7405 125.889C49.2909 126.207 49.8307 126.524 50.3705 126.842C50.6457 126.99 50.8997 127.17 51.1431 127.36C51.3972 127.54 51.6406 127.72 51.8946 127.9C52.3815 128.26 52.8895 128.599 53.3552 128.969C53.7998 129.361 54.2443 129.752 54.6889 130.133C58.1711 133.245 60.616 136.77 62.246 140.093C63.8548 143.427 64.7862 146.518 65.1355 149.09C65.1884 149.407 65.2413 149.725 65.2943 150.021C65.3578 150.328 65.4001 150.614 65.4107 150.91C65.453 151.482 65.4848 152.022 65.5271 152.519C65.5589 153.016 65.6012 153.482 65.6118 153.906C65.6012 154.329 65.58 154.71 65.5695 155.049C65.5483 155.726 65.5271 156.245 65.5165 156.605C65.4636 156.964 65.453 157.144 65.453 157.144Z" fill="#263238"/>
<path d="M426.545 30.6943H207.451V314.352H426.545V30.6943Z" fill="white"/>
<path d="M425.762 47.8619C425.762 48.01 376.831 48.137 316.479 48.137C256.107 48.137 207.187 48.01 207.187 47.8619C207.187 47.7137 256.107 47.5867 316.479 47.5867C376.831 47.5867 425.762 47.7137 425.762 47.8619Z" fill="#263238"/>
<path d="M216.924 41.8394C218.391 41.8394 219.581 40.65 219.581 39.1828C219.581 37.7155 218.391 36.5261 216.924 36.5261C215.457 36.5261 214.268 37.7155 214.268 39.1828C214.268 40.65 215.457 41.8394 216.924 41.8394Z" fill="#263238"/>
<path d="M224.566 41.8394C226.033 41.8394 227.222 40.65 227.222 39.1828C227.222 37.7155 226.033 36.5261 224.566 36.5261C223.099 36.5261 221.909 37.7155 221.909 39.1828C221.909 40.65 223.099 41.8394 224.566 41.8394Z" fill="#263238"/>
<path d="M232.207 41.8394C233.675 41.8394 234.864 40.65 234.864 39.1828C234.864 37.7155 233.675 36.5261 232.207 36.5261C230.74 36.5261 229.551 37.7155 229.551 39.1828C229.551 40.65 230.74 41.8394 232.207 41.8394Z" fill="#263238"/>
<path d="M426.291 315.22C426.291 313.279 426.186 198.253 426.038 30.9302L426.291 31.1479C359.488 31.157 285.499 31.157 207.747 31.1661H207.726L208.001 30.9302C207.98 138.209 207.958 237.115 207.948 315.22L207.726 315.029C341.025 315.147 424.505 315.22 426.291 315.22C424.505 315.22 341.025 315.293 207.726 315.41H207.504V315.22C207.493 237.115 207.472 138.209 207.451 30.9302V30.6943H207.726H207.747C285.499 30.7034 359.488 30.7034 426.291 30.7125H426.545V30.9302C426.397 198.253 426.291 313.279 426.291 315.22Z" fill="#263238"/>
<path d="M422.152 421.369C422.162 421.369 422.099 421.221 421.972 420.935C421.824 420.628 421.633 420.216 421.39 419.697C420.892 418.607 420.257 416.945 419.686 414.733C418.553 410.319 418.162 403.577 419.834 395.565C420.606 391.554 421.866 387.256 423.39 382.695C424.893 378.122 426.639 373.275 428.068 368.035C429.476 362.807 430.598 357.134 430.376 351.185C430.164 345.226 428.396 339.278 426.449 333.351C424.512 327.424 422.512 321.623 421.908 315.792C421.231 309.97 422.48 304.255 425.126 299.576C427.698 294.845 430.926 290.792 433.35 286.6C435.805 282.419 437.34 278.122 438.293 274.132C440.124 266.077 439.489 259.282 438.61 254.805C437.658 250.307 436.599 247.978 436.599 247.978C436.589 247.978 436.631 248.137 436.716 248.433C436.822 248.762 436.949 249.185 437.128 249.746C437.488 250.9 437.943 252.614 438.377 254.858C439.182 259.325 439.753 266.067 437.88 274.037C436.917 277.985 435.371 282.229 432.927 286.346C430.513 290.485 427.264 294.517 424.65 299.312C421.94 304.043 420.638 309.949 421.326 315.866C421.93 321.793 423.951 327.635 425.877 333.562C427.814 339.479 429.561 345.364 429.783 351.228C430.005 357.081 428.915 362.701 427.529 367.908C426.121 373.126 424.396 377.974 422.914 382.557C421.4 387.129 420.173 391.469 419.421 395.512C417.791 403.577 418.257 410.394 419.474 414.818C420.088 417.03 420.765 418.692 421.305 419.771C421.57 420.29 421.781 420.692 421.94 420.988C422.067 421.232 422.141 421.369 422.152 421.369Z" fill="#263238"/>
<path d="M430.069 290.728C430.069 290.728 434.98 275.021 426.174 265.823C425.867 265.506 425.317 265.654 425.243 266.099C424.766 268.692 424.174 276.588 430.069 290.728Z" fill="#FF8E26"/>
<path d="M427.126 271.063C427.042 271.084 427.179 272.184 427.454 273.963C427.783 275.963 428.153 278.302 428.576 280.885C428.989 283.478 429.36 285.817 429.677 287.807C429.942 289.585 430.111 290.675 430.196 290.675C430.281 290.665 430.27 289.553 430.111 287.754C429.952 285.955 429.635 283.488 429.19 280.779C428.746 278.069 428.269 275.624 427.888 273.867C427.497 272.121 427.211 271.041 427.126 271.063Z" fill="#263238"/>
<path d="M424.301 327.773C424.301 327.773 421.295 311.59 409.208 307.589C408.785 307.451 408.372 307.843 408.509 308.266C409.303 310.775 412.478 318.025 424.301 327.773Z" fill="#FF8E26"/>
<path d="M412.499 311.759C412.436 311.812 413.071 312.722 414.151 314.162C415.368 315.77 416.797 317.665 418.384 319.761C419.961 321.856 421.38 323.751 422.597 325.37C423.666 326.81 424.322 327.71 424.396 327.657C424.46 327.614 423.93 326.63 422.957 325.116C421.972 323.603 420.543 321.571 418.882 319.38C417.22 317.189 415.664 315.252 414.5 313.886C413.325 312.521 412.563 311.706 412.499 311.759Z" fill="#263238"/>
<path d="M427.56 368.363C427.56 368.363 429.381 352.011 418.987 344.665C418.617 344.411 418.119 344.665 418.119 345.11C418.151 347.735 419.082 355.609 427.56 368.363Z" fill="#FF8E26"/>
<path d="M420.924 349.619C420.85 349.65 421.199 350.709 421.802 352.402C422.501 354.297 423.316 356.53 424.226 358.986C425.126 361.452 425.93 363.675 426.629 365.58C427.232 367.273 427.603 368.321 427.687 368.289C427.761 368.268 427.539 367.178 427.042 365.442C426.544 363.706 425.761 361.346 424.808 358.774C423.856 356.202 422.924 353.895 422.215 352.244C421.495 350.582 420.998 349.576 420.924 349.619Z" fill="#263238"/>
<path d="M418.458 409.187C418.458 409.187 419.696 392.781 409.038 385.806C408.667 385.563 408.17 385.838 408.191 386.282C408.318 388.918 409.525 396.74 418.458 409.187Z" fill="#FF8E26"/>
<path d="M411.155 390.686C411.081 390.717 411.462 391.765 412.128 393.437C412.89 395.311 413.79 397.502 414.785 399.936C415.769 402.371 416.658 404.562 417.42 406.435C418.087 408.107 418.489 409.134 418.574 409.113C418.648 409.092 418.394 408.001 417.833 406.287C417.272 404.572 416.404 402.244 415.357 399.703C414.309 397.163 413.303 394.898 412.531 393.268C411.758 391.638 411.229 390.654 411.155 390.686Z" fill="#263238"/>
<path d="M437.129 276.926C437.129 276.926 451.714 269.305 452 256.573C452.01 256.128 451.513 255.853 451.153 256.107C448.983 257.61 442.971 262.775 437.129 276.926Z" fill="#FF8E26"/>
<path d="M448.973 260.955C448.899 260.912 448.221 261.791 447.152 263.23C445.967 264.871 444.58 266.797 443.035 268.914C441.49 271.031 440.093 272.947 438.907 274.587C437.838 276.027 437.182 276.926 437.245 276.979C437.309 277.032 438.092 276.238 439.246 274.852C440.4 273.465 441.924 271.497 443.532 269.274C445.141 267.051 446.528 264.987 447.502 263.474C448.486 261.971 449.036 260.997 448.973 260.955Z" fill="#263238"/>
<path d="M421.464 310.658C421.464 310.658 436.483 303.937 437.541 291.247C437.584 290.802 437.107 290.495 436.726 290.728C434.472 292.094 428.164 296.888 421.464 310.658Z" fill="#FF8E26"/>
<path d="M434.26 295.428C434.196 295.375 433.455 296.211 432.312 297.597C431.032 299.164 429.529 300.995 427.867 303.027C426.195 305.049 424.692 306.88 423.4 308.436C422.247 309.812 421.527 310.658 421.601 310.722C421.654 310.775 422.49 310.034 423.728 308.721C424.967 307.409 426.607 305.536 428.343 303.408C430.079 301.281 431.592 299.312 432.661 297.862C433.709 296.412 434.323 295.481 434.26 295.428Z" fill="#263238"/>
<path d="M430.111 348.285C430.111 348.285 440.42 335.468 435.583 323.687C435.414 323.275 434.853 323.222 434.62 323.592C433.234 325.836 429.794 332.97 430.111 348.285Z" fill="#FF8E26"/>
<path d="M434.557 328.895C434.472 328.884 434.197 329.964 433.805 331.71C433.371 333.69 432.874 336.007 432.313 338.569C431.752 341.13 431.233 343.448 430.799 345.417C430.397 347.163 430.154 348.253 430.238 348.275C430.313 348.296 430.715 347.258 431.223 345.523C431.731 343.797 432.334 341.384 432.916 338.696C433.498 336.007 433.943 333.563 434.229 331.795C434.525 330.027 434.641 328.916 434.557 328.895Z" fill="#263238"/>
<path d="M419.887 392.559C419.887 392.559 434.789 385.595 435.636 372.883C435.668 372.438 435.181 372.142 434.811 372.375C432.577 373.772 426.354 378.673 419.887 392.559Z" fill="#FF8E26"/>
<path d="M432.429 377.117C432.366 377.064 431.635 377.91 430.513 379.318C429.254 380.906 427.783 382.758 426.153 384.822C424.523 386.875 423.041 388.728 421.781 390.305C420.649 391.702 419.95 392.559 420.014 392.623C420.067 392.675 420.892 391.913 422.109 390.59C423.327 389.257 424.935 387.362 426.629 385.203C428.333 383.044 429.815 381.054 430.852 379.583C431.889 378.112 432.493 377.17 432.429 377.117Z" fill="#263238"/>
<path d="M390.198 327.857C390.187 327.857 390.177 327.984 390.177 328.217C390.187 328.503 390.187 328.852 390.198 329.265C390.24 330.249 390.304 331.594 390.378 333.255C390.568 336.759 390.833 341.659 391.161 347.502V347.512V347.534C392.23 353.492 395.257 360.086 399.332 366.5C402.317 371.221 405.45 375.508 408.149 379.509C410.869 383.488 413.166 387.172 414.764 390.442C416.373 393.702 417.315 396.507 417.855 398.465C418.119 399.449 418.31 400.211 418.426 400.741C418.553 401.259 418.627 401.534 418.648 401.534C418.67 401.534 418.638 401.249 418.553 400.719C418.479 400.19 418.32 399.407 418.087 398.412C417.611 396.422 416.722 393.575 415.156 390.262C413.589 386.939 411.324 383.202 408.625 379.202C405.947 375.18 402.825 370.882 399.851 366.183C395.797 359.811 392.78 353.313 391.68 347.449V347.481C391.267 341.638 390.928 336.748 390.674 333.245C390.537 331.583 390.431 330.249 390.357 329.265C390.314 328.852 390.283 328.503 390.251 328.217C390.23 327.984 390.208 327.857 390.198 327.857Z" fill="#263238"/>
<path d="M399.079 365.283C399.079 365.283 392.771 350.084 400.709 340.135C400.984 339.786 401.545 339.892 401.661 340.315C402.36 342.855 403.662 350.666 399.079 365.283Z" fill="#FF8E26"/>
<path d="M400.222 345.427C400.137 345.417 399.946 346.518 399.724 348.306C399.502 350.095 399.248 352.561 399.057 355.302C398.856 358.044 398.771 360.531 398.771 362.33C398.771 364.13 398.867 365.252 398.951 365.241C399.047 365.241 399.1 364.13 399.205 362.341C399.343 360.33 399.502 357.959 399.671 355.345C399.851 352.73 400.02 350.36 400.158 348.349C400.264 346.549 400.306 345.438 400.222 345.427Z" fill="#263238"/>
<path d="M418.627 401.905C418.627 401.905 413.568 386.251 422.289 376.968C422.596 376.64 423.147 376.789 423.221 377.233C423.718 379.816 424.385 387.711 418.627 401.905Z" fill="#FF8E26"/>
<path d="M421.379 382.208C421.295 382.197 421.009 383.266 420.649 385.034C420.279 386.791 419.834 389.236 419.411 391.956C418.987 394.665 418.702 397.142 418.553 398.941C418.416 400.741 418.416 401.852 418.49 401.863C418.575 401.873 418.733 400.772 418.987 398.994C419.284 396.994 419.633 394.655 420.025 392.062C420.416 389.468 420.776 387.119 421.083 385.129C421.337 383.33 421.464 382.229 421.379 382.208Z" fill="#263238"/>
<path d="M391.034 346.708C391.034 346.708 377.55 337.267 378.915 324.608C378.968 324.164 379.487 323.952 379.815 324.248C381.773 326.026 387.065 331.922 391.034 346.708Z" fill="#FF8E26"/>
<path d="M381.35 329.339C381.276 329.382 381.699 330.408 382.472 332.038C383.245 333.668 384.356 335.891 385.658 338.304C386.96 340.717 388.219 342.866 389.182 344.39C390.156 345.914 390.834 346.803 390.897 346.75C390.971 346.698 390.431 345.734 389.563 344.168C388.6 342.39 387.457 340.315 386.208 338.008C384.959 335.701 383.827 333.615 382.864 331.837C381.996 330.26 381.424 329.308 381.35 329.339Z" fill="#263238"/>
<path d="M413.187 386.378C413.187 386.378 396.93 383.838 392.569 371.877C392.421 371.454 392.792 371.041 393.226 371.158C395.766 371.888 403.111 374.852 413.187 386.378Z" fill="#FF8E26"/>
<path d="M396.845 375.053C396.792 375.116 397.628 375.857 399.036 376.979C400.444 378.101 402.423 379.604 404.656 381.202C406.89 382.8 408.964 384.176 410.499 385.108C412.044 386.039 413.039 386.547 413.081 386.473C413.124 386.399 412.213 385.764 410.742 384.737C409.091 383.573 407.154 382.208 405.016 380.694C402.878 379.17 400.941 377.805 399.301 376.63C397.829 375.592 396.898 374.979 396.845 375.053Z" fill="#263238"/>
<path d="M432.429 416.3L427.761 446.888L409.144 446.856L402.867 416.3H432.429Z" fill="#46415A"/>
<path d="M415.431 426.122C415.908 425.402 416.236 424.523 416.299 423.56C416.373 422.618 416.003 421.486 415.04 420.925C414.076 420.364 412.838 420.565 411.917 421.179C410.965 421.803 410.404 422.883 410.129 423.984C409.864 425.105 409.832 426.259 409.896 427.434C409.97 428.609 410.192 429.815 410.647 430.969C411.102 432.123 411.822 433.213 412.806 434.049C413.78 434.885 415.04 435.478 416.394 435.542C417.749 435.605 419.04 435.139 420.12 434.462C421.21 433.774 422.131 432.917 422.904 431.943C423.666 430.98 424.237 429.815 424.311 428.577C424.375 427.36 423.941 426.1 422.988 425.338C422.025 424.555 420.649 424.608 419.686 425.137C418.691 425.635 417.95 426.587 417.781 427.635C417.421 429.731 418.649 431.625 420.141 432.472C421.665 433.34 423.327 433.372 424.64 433.118C425.973 432.853 427.032 432.335 427.847 431.869C428.662 431.393 429.244 430.959 429.635 430.652C430.027 430.345 430.217 430.175 430.207 430.165C430.196 430.154 429.985 430.292 429.572 430.567C429.159 430.842 428.556 431.244 427.741 431.689C426.926 432.123 425.878 432.61 424.587 432.832C423.316 433.044 421.729 432.98 420.321 432.155C418.956 431.361 417.855 429.561 418.194 427.709C418.352 426.799 418.998 425.973 419.887 425.539C420.755 425.084 421.898 425.053 422.692 425.709C423.486 426.344 423.877 427.466 423.825 428.556C423.761 429.646 423.232 430.726 422.512 431.636C421.782 432.546 420.882 433.382 419.855 434.028C418.829 434.663 417.643 435.086 416.416 435.033C415.198 434.981 414.045 434.441 413.134 433.658C412.224 432.874 411.536 431.869 411.113 430.779C410.668 429.688 410.457 428.535 410.383 427.402C410.308 426.27 410.34 425.137 410.584 424.089C410.827 423.052 411.335 422.078 412.161 421.539C412.965 420.988 414.045 420.829 414.817 421.274C415.611 421.719 415.95 422.661 415.897 423.518C415.855 424.386 415.558 425.222 415.124 425.899C414.203 427.254 412.88 428.08 411.653 428.503C410.414 428.937 409.261 428.99 408.34 428.895C406.488 428.683 405.609 428.006 405.588 428.08C405.588 428.09 405.641 428.122 405.747 428.196C405.852 428.26 406.011 428.365 406.234 428.471C406.678 428.694 407.377 428.958 408.319 429.096C409.261 429.223 410.446 429.202 411.748 428.778C413.029 428.376 414.436 427.55 415.431 426.122Z" fill="white"/>
<path d="M388.368 260.584H244.253C240.876 260.584 238.146 257.853 238.146 254.477V232.61C238.146 229.233 240.876 226.503 244.253 226.503H388.368C391.744 226.503 394.475 229.233 394.475 232.61V254.477C394.475 257.843 391.744 260.584 388.368 260.584Z" fill="#3936DB" fill-opacity="0.9"/>
<path d="M246.265 105.555V106.127H241.841V99.8608H246.138V100.432H242.497V102.655H245.736V103.216H242.497V105.545H246.265V105.555Z" fill="#263238"/>
<path d="M247.165 103.429H249.504V103.98H247.165V103.429Z" fill="#263238"/>
<path d="M258.691 103.398V106.128H258.056V103.461C258.056 102.466 257.558 101.958 256.701 101.958C255.738 101.958 255.124 102.583 255.124 103.662V106.128H254.489V103.461C254.489 102.466 253.991 101.958 253.123 101.958C252.171 101.958 251.546 102.583 251.546 103.662V106.128H250.911V101.418H251.514V102.276C251.843 101.715 252.456 101.376 253.24 101.376C254.023 101.376 254.626 101.704 254.912 102.371C255.251 101.768 255.928 101.376 256.775 101.376C257.939 101.387 258.691 102.053 258.691 103.398Z" fill="#263238"/>
<path d="M263.973 103.207V106.128H263.369V105.398C263.083 105.885 262.533 106.181 261.75 106.181C260.681 106.181 260.035 105.631 260.035 104.816C260.035 104.085 260.501 103.482 261.856 103.482H263.348V103.196C263.348 102.392 262.893 101.958 262.014 101.958C261.411 101.958 260.829 102.17 260.448 102.508L260.162 102.032C260.638 101.63 261.337 101.397 262.078 101.397C263.285 101.387 263.973 101.99 263.973 103.207ZM263.337 104.71V103.937H261.856C260.945 103.937 260.649 104.297 260.649 104.773C260.649 105.324 261.083 105.663 261.834 105.663C262.565 105.673 263.083 105.334 263.337 104.71Z" fill="#263238"/>
<path d="M265.561 99.9365C265.561 99.693 265.762 99.4919 266.026 99.4919C266.291 99.4919 266.492 99.693 266.492 99.9259C266.492 100.191 266.291 100.392 266.026 100.392C265.762 100.392 265.561 100.191 265.561 99.9365ZM265.698 101.418H266.333V106.128H265.698V101.418Z" fill="#263238"/>
<path d="M268.111 99.4919H268.746V106.128H268.111V99.4919Z" fill="#263238"/>
<path d="M244.349 163.673C244.349 165.007 243.385 165.811 241.787 165.811H240.104V167.79H239.438V161.524H241.777C243.385 161.524 244.349 162.329 244.349 163.673ZM243.682 163.673C243.682 162.668 243.015 162.096 241.766 162.096H240.104V165.229H241.766C243.026 165.229 243.682 164.657 243.682 163.673Z" fill="black"/>
<path d="M249.154 164.871V167.792H248.551V167.062C248.265 167.549 247.704 167.845 246.931 167.845C245.862 167.845 245.217 167.295 245.217 166.48C245.217 165.76 245.683 165.146 247.037 165.146H248.53V164.86C248.53 164.056 248.075 163.622 247.196 163.622C246.593 163.622 246.011 163.834 245.63 164.172L245.344 163.696C245.82 163.294 246.519 163.061 247.26 163.061C248.466 163.05 249.154 163.654 249.154 164.871ZM248.519 166.374V165.601H247.037C246.127 165.601 245.831 165.961 245.831 166.437C245.831 166.988 246.265 167.326 247.016 167.326C247.736 167.337 248.265 166.998 248.519 166.374Z" fill="black"/>
<path d="M250.223 167.252L250.508 166.755C250.889 167.051 251.525 167.284 252.181 167.284C253.08 167.284 253.44 166.977 253.44 166.511C253.44 165.284 250.392 166.247 250.392 164.394C250.392 163.622 251.059 163.05 252.255 163.05C252.858 163.05 253.525 163.22 253.917 163.484L253.641 163.992C253.229 163.707 252.742 163.59 252.255 163.59C251.408 163.59 251.027 163.918 251.027 164.373C251.027 165.643 254.075 164.691 254.075 166.49C254.075 167.305 253.356 167.834 252.138 167.834C251.366 167.834 250.614 167.58 250.223 167.252Z" fill="black"/>
<path d="M254.604 167.252L254.89 166.755C255.271 167.051 255.906 167.284 256.563 167.284C257.462 167.284 257.822 166.977 257.822 166.511C257.822 165.284 254.774 166.247 254.774 164.394C254.774 163.622 255.441 163.05 256.637 163.05C257.24 163.05 257.907 163.22 258.298 163.484L258.023 163.992C257.61 163.707 257.124 163.59 256.637 163.59C255.79 163.59 255.409 163.918 255.409 164.373C255.409 165.643 258.457 164.691 258.457 166.49C258.457 167.305 257.737 167.834 256.52 167.834C255.737 167.834 254.986 167.58 254.604 167.252Z" fill="black"/>
<path d="M266.448 163.082L264.67 167.792H264.067L262.585 163.939L261.103 167.792H260.5L258.732 163.082H259.336L260.807 167.083L262.32 163.082H262.871L264.374 167.083L265.866 163.082H266.448Z" fill="black"/>
<path d="M266.798 165.432C266.798 164.034 267.814 163.04 269.2 163.04C270.576 163.04 271.592 164.034 271.592 165.432C271.592 166.829 270.576 167.834 269.2 167.834C267.814 167.834 266.798 166.829 266.798 165.432ZM270.936 165.432C270.936 164.331 270.195 163.601 269.19 163.601C268.184 163.601 267.433 164.331 267.433 165.432C267.433 166.532 268.184 167.263 269.19 167.263C270.195 167.273 270.936 166.532 270.936 165.432Z" fill="black"/>
<path d="M275.255 163.05V163.664C275.202 163.664 275.149 163.654 275.106 163.654C274.122 163.654 273.519 164.278 273.519 165.389V167.792H272.884V163.082H273.487V164.003C273.783 163.378 274.387 163.05 275.255 163.05Z" fill="black"/>
<path d="M280.653 161.145V167.781H280.049V166.85C279.668 167.485 279.012 167.824 278.229 167.824C276.885 167.824 275.89 166.85 275.89 165.421C275.89 164.003 276.895 163.029 278.229 163.029C278.98 163.029 279.626 163.347 280.017 163.961V161.135H280.653V161.145ZM280.017 165.432C280.017 164.331 279.266 163.601 278.271 163.601C277.266 163.601 276.514 164.331 276.514 165.432C276.514 166.532 277.266 167.263 278.271 167.263C279.266 167.273 280.017 166.532 280.017 165.432Z" fill="black"/>
<path d="M387.331 146.718H245.84C241.744 146.718 238.421 143.394 238.421 139.298V120.31C238.421 116.214 241.744 112.89 245.84 112.89H387.331C391.427 112.89 394.75 116.214 394.75 120.31V139.298C394.75 143.405 391.427 146.718 387.331 146.718Z" fill="#EBEBEB"/>
<path d="M387.332 146.719C387.332 146.719 387.416 146.708 387.575 146.698C387.734 146.677 387.967 146.687 388.274 146.634C388.888 146.56 389.819 146.348 390.888 145.756C391.936 145.163 393.142 144.147 393.915 142.538C394.307 141.744 394.571 140.813 394.635 139.797C394.677 138.781 394.645 137.669 394.645 136.516C394.614 131.869 394.645 126.164 394.561 119.591C394.381 117.983 393.661 116.374 392.423 115.167C391.195 113.95 389.47 113.167 387.639 113.103C383.892 113.103 379.944 113.103 375.784 113.103C342.518 113.124 296.582 113.156 245.842 113.188C242.751 113.146 239.851 115.326 239.004 118.247C238.549 119.687 238.729 121.253 238.697 122.82C238.697 124.376 238.697 125.921 238.697 127.466C238.697 130.557 238.697 133.626 238.697 136.664V138.939C238.687 139.691 238.739 140.411 238.941 141.12C239.29 142.528 240.115 143.808 241.206 144.74C242.296 145.682 243.672 146.264 245.101 146.422C246.529 146.507 248.043 146.444 249.493 146.465C252.425 146.465 255.336 146.465 258.214 146.465C263.972 146.465 269.603 146.475 275.096 146.475C297.08 146.497 316.883 146.518 333.511 146.539C350.128 146.581 363.581 146.602 372.895 146.624C377.531 146.645 381.14 146.666 383.606 146.677C384.823 146.687 385.744 146.698 386.39 146.708C387.014 146.708 387.332 146.719 387.332 146.719C387.332 146.719 387.014 146.74 386.379 146.751C385.733 146.761 384.813 146.761 383.595 146.782C381.129 146.793 377.531 146.814 372.884 146.835C363.57 146.856 350.117 146.888 333.5 146.92C316.872 146.941 297.069 146.952 275.086 146.983C269.593 146.983 263.951 146.994 258.204 146.994C255.325 146.994 252.414 146.994 249.482 146.994C248.001 146.973 246.561 147.036 245.027 146.952C243.502 146.782 242.021 146.158 240.835 145.142C239.66 144.136 238.782 142.76 238.401 141.247C238.189 140.495 238.136 139.691 238.147 138.929V136.653C238.147 133.616 238.147 130.546 238.147 127.456C238.147 125.91 238.147 124.365 238.147 122.809V120.47C238.157 119.676 238.242 118.851 238.485 118.078C239.406 114.934 242.529 112.585 245.852 112.627C296.582 112.659 342.518 112.691 375.795 112.712C379.954 112.722 383.913 112.733 387.66 112.743C389.575 112.818 391.385 113.643 392.655 114.924C393.936 116.194 394.698 117.877 394.868 119.549C394.931 126.185 394.857 131.848 394.857 136.505C394.846 137.669 394.878 138.76 394.815 139.797C394.741 140.834 394.455 141.787 394.053 142.602C393.248 144.232 392.01 145.258 390.93 145.84C389.84 146.422 388.898 146.613 388.274 146.677C387.66 146.751 387.332 146.719 387.332 146.719Z" fill="#263238"/>
<path d="M387.331 207.757H245.84C241.744 207.757 238.421 204.433 238.421 200.337V181.349C238.421 177.253 241.744 173.93 245.84 173.93H387.331C391.427 173.93 394.75 177.253 394.75 181.349V200.337C394.75 204.433 391.427 207.757 387.331 207.757Z" fill="#EBEBEB"/>
<path d="M387.332 207.758C387.332 207.758 387.416 207.748 387.575 207.737C387.734 207.716 387.967 207.726 388.274 207.674C388.888 207.599 389.819 207.388 390.888 206.795C391.936 206.202 393.142 205.186 393.915 203.577C394.307 202.784 394.571 201.852 394.635 200.836C394.677 199.82 394.645 198.709 394.645 197.555C394.614 192.908 394.645 187.204 394.561 180.631C394.381 179.022 393.661 177.413 392.423 176.207C391.195 174.989 389.47 174.206 387.639 174.143C383.892 174.143 379.944 174.143 375.784 174.143C342.518 174.164 296.582 174.196 245.842 174.227C242.751 174.185 239.851 176.365 239.004 179.287C238.549 180.726 238.729 182.292 238.697 183.859C238.697 185.415 238.697 186.96 238.697 188.505C238.697 191.596 238.697 194.665 238.697 197.703V199.979C238.687 200.73 238.739 201.45 238.941 202.159C239.29 203.567 240.115 204.848 241.206 205.779C242.296 206.721 243.672 207.303 245.101 207.462C246.529 207.546 248.043 207.483 249.493 207.504C252.425 207.504 255.336 207.504 258.214 207.504C263.972 207.504 269.603 207.515 275.096 207.515C297.08 207.536 316.883 207.557 333.511 207.578C350.128 207.621 363.581 207.642 372.895 207.663C377.531 207.684 381.14 207.705 383.606 207.716C384.823 207.726 385.744 207.737 386.39 207.748C387.014 207.737 387.332 207.758 387.332 207.758C387.332 207.758 387.014 207.779 386.379 207.79C385.733 207.801 384.813 207.801 383.595 207.822C381.129 207.832 377.531 207.853 372.884 207.875C363.57 207.896 350.117 207.928 333.5 207.959C316.872 207.98 297.069 207.991 275.086 208.023C269.593 208.023 263.951 208.033 258.204 208.033C255.325 208.033 252.414 208.033 249.482 208.033C248.001 208.012 246.561 208.076 245.027 207.991C243.502 207.822 242.021 207.197 240.835 206.181C239.66 205.176 238.782 203.8 238.401 202.286C238.189 201.535 238.136 200.73 238.147 199.968V197.693C238.147 194.655 238.147 191.585 238.147 188.495C238.147 186.95 238.147 185.404 238.147 183.848V181.509C238.157 180.715 238.242 179.89 238.485 179.117C239.406 175.974 242.529 173.624 245.852 173.666C296.582 173.698 342.518 173.73 375.795 173.751C379.954 173.762 383.913 173.772 387.66 173.783C389.575 173.857 391.385 174.682 392.655 175.963C393.936 177.233 394.698 178.916 394.868 180.588C394.931 187.225 394.857 192.887 394.857 197.544C394.846 198.709 394.878 199.799 394.815 200.836C394.741 201.873 394.455 202.826 394.053 203.641C393.248 205.271 392.01 206.298 390.93 206.88C389.84 207.462 388.898 207.652 388.274 207.716C387.66 207.779 387.332 207.758 387.332 207.758Z" fill="#263238"/>
<path d="M301.209 241.813H302.477C302.452 240.585 301.404 239.715 299.856 239.715C298.329 239.715 297.182 240.574 297.186 241.86C297.186 242.904 297.928 243.504 299.125 243.813L299.952 244.026C300.737 244.225 301.255 244.47 301.259 245.034C301.255 245.656 300.666 246.071 299.806 246.071C298.983 246.071 298.343 245.702 298.29 244.938H296.994C297.047 246.384 298.123 247.197 299.817 247.197C301.561 247.197 302.573 246.327 302.576 245.045C302.573 243.784 301.532 243.209 300.439 242.95L299.757 242.779C299.16 242.637 298.514 242.385 298.521 241.778C298.524 241.231 299.015 240.83 299.838 240.83C300.623 240.83 301.142 241.196 301.209 241.813ZM304.294 247.087H305.58V241.632H304.294V247.087ZM304.94 240.858C305.349 240.858 305.683 240.546 305.683 240.162C305.683 239.775 305.349 239.463 304.94 239.463C304.528 239.463 304.195 239.775 304.195 240.162C304.195 240.546 304.528 240.858 304.94 240.858ZM309.874 249.225C311.347 249.225 312.434 248.55 312.434 247.176V241.632H311.166V242.534H311.095C310.9 242.14 310.492 241.561 309.529 241.561C308.268 241.561 307.278 242.549 307.278 244.342C307.278 246.121 308.268 247.009 309.526 247.009C310.46 247.009 310.896 246.508 311.095 246.107H311.159V247.14C311.159 247.921 310.626 248.252 309.895 248.252C309.121 248.252 308.78 247.886 308.624 247.588L307.466 247.868C307.7 248.61 308.485 249.225 309.874 249.225ZM309.884 246C309.036 246 308.588 245.34 308.588 244.335C308.588 243.344 309.028 242.616 309.884 242.616C310.712 242.616 311.166 243.301 311.166 244.335C311.166 245.375 310.705 246 309.884 246ZM315.637 243.891C315.637 243.103 316.113 242.648 316.791 242.648C317.455 242.648 317.853 243.085 317.853 243.813V247.087H319.138V243.614C319.142 242.307 318.396 241.561 317.27 241.561C316.454 241.561 315.893 241.952 315.644 242.559H315.58V241.632H314.351V247.087H315.637V243.891ZM327.602 244.793C327.602 245.624 327.009 246.036 326.441 246.036C325.823 246.036 325.411 245.599 325.411 244.907V241.632H324.126V245.105C324.126 246.416 324.871 247.158 325.944 247.158C326.761 247.158 327.336 246.728 327.584 246.117H327.641V247.087H328.888V241.632H327.602V244.793ZM330.81 249.132H332.095V246.228H332.148C332.351 246.625 332.773 247.183 333.711 247.183C334.996 247.183 335.959 246.164 335.959 244.367C335.959 242.549 334.968 241.561 333.707 241.561C332.745 241.561 332.344 242.14 332.148 242.534H332.074V241.632H330.81V249.132ZM332.07 244.36C332.07 243.301 332.525 242.616 333.352 242.616C334.208 242.616 334.648 243.344 334.648 244.36C334.648 245.382 334.201 246.128 333.352 246.128C332.532 246.128 332.07 245.418 332.07 244.36Z" fill="white"/>
</g>
<defs>
<clipPath id="clip0_283_504">
<rect width="452" height="459.589" fill="white"/>
</clipPath>
</defs>
</svg>
