<?xml version="1.0" encoding="UTF-8"?>
<svg id="Layer_2" xmlns="http://www.w3.org/2000/svg" viewBox="0 0 82.1 120.03">
    <defs>
        <style>
            .cls-1{fill:#fb8786;}.cls-2{fill:#fb8281;}.cls-3{fill:#fb6866;}.cls-4{fill:#f7645d;}.cls-5{fill:#fff;}.cls-6{fill:#ffbfbf;}.cls-7{fill:#fca6a4;}.cls-8{fill:#fcc1be;}.cls-9{fill:#e6bb83;}.cls-10{fill:#e84945;}.cls-11{fill:#ff9494;}.cls-12{fill:#fdb7b6;}.cls-13{fill:#ff7676;}.cls-14{fill:#744805;}.cls-15{fill:#b3b3af;}.cls-16{fill:#66400d;}.cls-17{fill:#939391;}.cls-18{fill:#b23741;}.cls-19{fill:#bf7a13;}.cls-20{fill:#ddd;}.cls-21{fill:#d58e30;}.cls-22{fill:#dbdbd9;}.cls-23{fill:#e0e0de;}.cls-24{fill:#ae3735;}.cls-25{fill:#ae3734;}.cls-26{fill:#1472bf;}.cls-27{fill:#1a98ff;}.cls-28{fill:#0d4c80;}.cls-29{fill:#2e0000;}.cls-30{fill:#500000;}
        </style>
    </defs>
    <g>
        <path class="cls-19"
              d="m62,61.86c-4.27.6-19.23,2.67-19.23,2.67h-3.39s-14.96-2.07-19.23-2.67c-2.88,3.1-16.44,18.71-19.24,30.08-3.62,14.72,6.38,21.59,15.12,25.06,11.1,4.4,21.45,2.49,25.01,2.59h.06c3.56-.1,13.99,1.78,25.01-2.59,8.74-3.47,18.74-10.34,15.12-25.06-2.8-11.37-16.35-26.98-19.24-30.08Z"/>
        <path class="cls-21"
              d="m46.08,71.11c-3.18-1.85-7.56.32-11.56-.89-.84-.2-1.59-1.36-2.23-1.77-1.26-1.22-2.29-1.3-5.31-1.98-3.69-.83-6.05-.97-8.77-2.52-4.44,5.2-15.69,18.54-17.4,28.72-.53,3.18-1.12,5.45-.38,8.34,3.89,6.06,14.14,5.2,16.04,6.02,10.58,5.31,21.6,7.25,33.12,4.78,2.13-.45,4.11-1.2,5.89-2.22-4.3-4.8-10.16-8.28-16.15-10.24-3.16-.96-6.44-.57-9.71-.49,1.11,1.37,2.41,2.58,4.08,3.5,4.45,2.67,9.29,3.65,14.12,3.58-4.83.07-9.67-.92-14.12-3.58-1.66-.93-2.97-2.14-4.08-3.5-2.19.06-4.36-.03-6.48-.76-2.11-.81-4.22-1.41-5.5-3.07-.64-.62.39-5.72-.25-6.34-3.04-1.23-5.95-4.47-5.8-9.3,1.32,3.97,6.72,3.45,8.85,5.31,4.21,3.78,5.65,9.79,9.19,14.16,3.26-.08,6.55-.48,9.71.49,5.99,1.96,11.85,5.44,16.15,10.24.27-.16.54-.32.81-.49,2.94-13.46,2.36-30.52-10.21-37.99Z"/>
        <path class="cls-9"
              d="m.13,99.73c1.39-10.17,6.45-18.87,12.79-27.39,1.81-2.36,4.62-5.88,5.2-7.98-4.79,5.48-15.52,18.11-17.31,27.92-.52,2.84-1.07,4.95-.67,7.44Z"/>
        <path class="cls-21" d="m55.89,110.26c.09-.37.18-.74.27-1.11-.27.17-.54.33-.82.48.18.21.37.42.55.64Z"/>
        <path class="cls-14"
              d="m62.07,61.79l-.04-.04h-.05c-4.22.6-19.08,2.65-19.21,2.67h-3.38c-.15-.02-15.01-2.07-19.23-2.66h-.05s-.04.03-.04.03c-.16.17-16.15,17.47-19.26,30.13-2.85,11.58,2.26,20.06,15.18,25.18,4.96,1.97,10.35,2.92,16.48,2.92,2.18,0,4.1-.12,5.65-.21,1.04-.06,1.93-.12,2.61-.12.11,0,.21,0,.31,0h.06c.71-.02,1.71.04,2.91.11,1.54.09,3.45.21,5.62.21,0,0,0,0,0,0,6.17,0,11.57-.95,16.51-2.91,12.92-5.13,18.03-13.6,15.18-25.18-3.11-12.66-19.1-29.95-19.26-30.13Zm4,55.11c-4.92,1.95-10.29,2.9-16.44,2.9h0c-2.16,0-4.07-.11-5.61-.21-1.04-.06-1.93-.12-2.62-.12-.11,0-.22,0-.31,0h-.06c-.72-.02-1.73.04-2.94.11-1.54.09-3.46.21-5.64.21-6.1,0-11.47-.95-16.4-2.91-12.81-5.08-17.87-13.47-15.06-24.94,3.03-12.31,18.31-29.06,19.17-29.99,4.29.6,19.02,2.64,19.19,2.66h3.41c.15-.02,14.88-2.06,19.17-2.66.86.94,16.15,17.68,19.17,29.99,2.82,11.46-2.25,19.85-15.06,24.94Z"/>
    </g>
    <g>
        <path class="cls-23"
              d="m42.85,65.4h-3.54c-12.9-.47-14.55,14.05-17.39,17.3s-8.05,8.51-8.19,15.29c-.1,13.75,15.64,17.95,27.5,17.95h.53c10.63-.21,26.77-4.2,26.67-17.95-.14-6.79-5.35-12.04-8.19-15.29s-4.49-17.77-17.39-17.3Z"/>
        <path class="cls-5"
              d="m60.56,89.01c-.56.04-1.37.49-1.48.6-1.89,2.1-1.22,6.67-2.6,7.98-.54.52-1.71,0-2.44-.52-1.05-.21-1.23,1.68-2.7,1.5-.21-.03-.81-.91-1.02-1.33-.63-1.05-1.32.36-2.19.22-2.55-1.55,2.57-13.13,8.94-16.26-2.54-4.3-5.86-7.94-9.49-10.17-3.15-1.89-8.66.21-12.65-1.05-.84-.21-3.13-1.93-3.63-2.35-4.35,3.06-6.26,8.59-7.82,12.21,3.9,1.8,6.91,5.03,9.77,8.41,2.31,2.52,1.97,9.34,1.05,9.45-.66.13-1.11-.72-1.73-.5-.12.04-.6.69-.97,1.02-.84.84-2.46-.17-3.18-1.15-.59.84-1.57,1.12-2.48.21-1.89-2.31.28-6.23-3.6-7.35-1.78-.51-3.34-.54-5.13-1.29-1.86,2.27-3.42,6.17-3.48,9.38-.02,2.38.44,4.48,1.27,6.32,2.47,6.66,22.95,11.08,34.5,8.77,3.93-.77,14.16-5.06,12.92-16.99-.22-2.12-.56-6.46-1.85-7.09Z"/>
        <path class="cls-17"
              d="m60.31,82.64c-.7-.81-1.35-2.35-2.09-4.15-2.19-5.26-5.51-13.2-14.77-13.2-.2,0-.4,0-.6.01h-3.54c-9.74-.36-13.14,7.82-15.38,13.19-.75,1.79-1.39,3.34-2.09,4.15-.25.28-.51.58-.78.89-2.91,3.28-7.3,8.23-7.43,14.47-.03,4.17,1.39,7.74,4.23,10.6,4.64,4.67,13.38,7.47,23.37,7.47h.54c12.41-.25,26.87-5.12,26.77-18.06-.13-6.24-4.52-11.19-7.43-14.47-.28-.31-.54-.61-.78-.89Zm-18.56,33.21h-.53c-9.94,0-18.62-2.77-23.23-7.4-2.8-2.82-4.2-6.33-4.17-10.44.13-6.16,4.49-11.08,7.38-14.34.28-.31.54-.61.79-.89.72-.83,1.38-2.39,2.13-4.2,2.17-5.21,5.45-13.07,14.58-13.07.2,0,.4,0,.6.01h3.55c9.58-.35,12.96,7.74,15.18,13.06.75,1.81,1.41,3.37,2.13,4.2.25.28.51.58.78.89,2.89,3.26,7.25,8.17,7.38,14.34.1,12.78-14.25,17.61-26.57,17.85Z"/>
    </g>
    <g>
        <g>
            <path class="cls-19"
                  d="m76.55,43.63c1.27-.21,2.76.57,2.76.57,0,0-1.06-3.53-4.38-6.01-3.32-2.47-6.08-10.46-7.56-13.85-1.48-3.39-8.2-7.56-14.91-9.12s-7-5.51-7.42-8.34c-.92,1.2-.99,5.44,0,6.86-2.33-3.18-5.37-4.38-7.42-3.82,1.56.71,3.96,3.6,3.96,3.6-1.91-1.06-4.31-2.12-6.22-.99,1.27.42,1.77,1.2,1.77,1.2,0,0-8.27-1.27-15.55,5.3-4.45,3.68-5.8,9.47-6.79,11.17-.99,1.7-8.13,5.3-10.67,9.47.92,0,2.83-.57,2.83-.57,0,0-4.81,2.62-4.95,8.62.78-1.06,2.62-2.4,2.62-2.4,0,0-3.04,5.55,2.26,11.27,5.3,5.73,17.81,8.87,25.87,8.52,5.14,6.7,12.3,1.98,12.3,1.98,0,0,6.36-.71,11.52-.85,5.16-.14,28.34-5.3,20.14-19.44,1.84.99,2.97,3.53,2.97,3.53,0,0,.64-4.17-3.11-6.71Z"/>
            <path class="cls-21"
                  d="m65.44,22.25c-1.46-.89-3.47-2.79-6.16-4.38-1.96-1.15-4.34-2.07-6.84-2.65-6.71-1.55-7-5.51-7.42-8.34-.92,1.2-.99,5.44,0,6.86-2.33-3.18-5.37-4.38-7.42-3.82,1.56.71,3.96,3.6,3.96,3.6-1.91-1.06-4.31-2.12-6.22-.99,1.27.42,1.77,1.2,1.77,1.2,0,0-8.27-1.27-15.55,5.3-4.45,3.68-5.8,9.47-6.79,11.17-.99,1.7-8.13,5.3-10.67,9.47.92,0,2.83-.57,2.83-.57,0,0-4.81,2.62-4.95,8.62.78-1.06,2.62-2.4,2.62-2.4,0,0-3.04,5.55,2.26,11.27.28.3.59.6.91.89.12.02.24.05.36.07,5.94,1.06,11.03,3.6,16.96,4.24,1.7.21,5.51,1.48,5.51-1.06,1.91,1.27,3.6,2.97,5.09,4.67,4.03,4.03,9.12-.64,12.3-3.82,1.27,2.76,4.66,1.48,7,1.27,6.36-1.06,13.36-3.6,15.9-9.75,3.18-8.48-2.23-16.75-4.24-24.81-.71-2.52-1.36-5.06-1.21-6.05Z"/>
            <path class="cls-19"
                  d="m26.67,30.27c-2.96,0-5.37,3.28-5.37,7.32s2.4,7.32,5.37,7.32,5.37-3.28,5.37-7.32-2.4-7.32-5.37-7.32Z"/>
            <g>
                <g>
                    <path d="m26.38,31.5c-2.75,0-4.98,3.07-4.98,6.85s2.23,6.85,4.98,6.85,4.98-3.07,4.98-6.85-2.23-6.85-4.98-6.85Z"/>
                    <path class="cls-20"
                          d="m26.38,32.4c-2.75,0-4.98,2.86-4.98,6.4s2.23,6.4,4.98,6.4,4.98-2.86,4.98-6.4-2.23-6.4-4.98-6.4Z"/>
                    <path class="cls-5"
                          d="m26.38,32.4c-2.75,0-5.27,2.88-4.98,6.4.51,6.28,9.58,5.71,9.97,0,.24-3.52-2.23-6.4-4.98-6.4Z"/>
                    <path d="m26.38,32.29c-2.81,0-5.09,2.92-5.09,6.5s2.28,6.5,5.09,6.5,5.09-2.92,5.09-6.5-2.28-6.5-5.09-6.5Zm0,12.79c-2.69,0-4.88-2.82-4.88-6.29s2.19-6.29,4.88-6.29,4.88,2.82,4.88,6.29-2.19,6.29-4.88,6.29Z"/>
                </g>
                <g>
                    <g>
                        <path class="cls-26"
                              d="m26.62,37.24c-1.3-.02-2.38,1.42-2.4,3.2-.02,1.79,1.02,3.25,2.32,3.26,1.3.02,2.38-1.42,2.4-3.2s-1.02-3.25-2.32-3.26Z"/>
                        <path class="cls-27"
                              d="m24.39,40.59c0,1.65.96,2.99,2.16,3,1.15.01,2.1-1.17,2.23-2.7-.23,1.2-3.77,1.41-4.39-.3Z"/>
                        <path d="m26.73,38.97c-.84-.01-1.53.91-1.55,2.07s.65,2.09,1.49,2.1,1.53-.91,1.55-2.07c.01-1.15-.65-2.09-1.49-2.1Z"/>
                        <path class="cls-28"
                              d="m26.63,37.13c-1.37-.02-2.48,1.48-2.51,3.31-.02,1.84,1.06,3.35,2.42,3.37.05,0,.1,0,.14,0,1.3-.09,2.34-1.54,2.36-3.3.02-1.84-1.06-3.35-2.42-3.37Zm-.08,6.47c-1.24-.02-2.23-1.43-2.21-3.16.02-1.66.97-3.02,2.16-3.1.04,0,.08,0,.13,0,1.24.02,2.24,1.43,2.21,3.16-.02,1.72-1.05,3.11-2.29,3.1Z"/>
                    </g>
                    <path class="cls-5"
                          d="m26.46,38.26c-.46,0-.83.37-.83.84s.37.83.83.83.83-.37.83-.83-.37-.84-.83-.84Z"/>
                    <path class="cls-5"
                          d="m25.33,39.93c-.27,0-.49.22-.49.49s.22.49.49.49.49-.22.49-.49-.22-.49-.49-.49Z"/>
                </g>
            </g>
            <path class="cls-19"
                  d="m54.26,32.38c-2.96,0-5.37,3.28-5.37,7.32s2.4,7.32,5.37,7.32,5.37-3.28,5.37-7.32-2.4-7.32-5.37-7.32Z"/>
            <g>
                <g>
                    <path d="m54.01,33.95c-2.75,0-4.98,3.07-4.98,6.85s2.23,6.85,4.98,6.85,4.98-3.07,4.98-6.85-2.23-6.85-4.98-6.85Z"/>
                    <path class="cls-20"
                          d="m54.01,34.85c-2.75,0-4.98,2.86-4.98,6.4s2.23,6.4,4.98,6.4,4.98-2.86,4.98-6.4-2.23-6.4-4.98-6.4Z"/>
                    <path class="cls-5"
                          d="m54.01,34.85c-2.75,0-5.27,2.88-4.98,6.4.51,6.28,9.58,5.71,9.97,0,.24-3.52-2.23-6.4-4.98-6.4Z"/>
                    <path d="m54.01,34.74c-2.81,0-5.09,2.92-5.09,6.5s2.28,6.5,5.09,6.5,5.09-2.92,5.09-6.5-2.28-6.5-5.09-6.5Zm0,12.79c-2.69,0-4.88-2.82-4.88-6.29s2.19-6.29,4.88-6.29,4.88,2.82,4.88,6.29-2.19,6.29-4.88,6.29Z"/>
                </g>
                <g>
                    <g>
                        <path class="cls-26"
                              d="m54.68,39.69c-1.3-.02-2.38,1.42-2.4,3.2s1.02,3.25,2.32,3.26c1.3.02,2.38-1.42,2.4-3.2s-1.02-3.25-2.32-3.26Z"/>
                        <path class="cls-27"
                              d="m52.44,43.05c0,1.65.96,2.99,2.16,3,1.15.01,2.1-1.17,2.23-2.7-.23,1.2-3.77,1.41-4.39-.3Z"/>
                        <path d="m54.78,41.42c-.84-.01-1.53.91-1.55,2.07-.01,1.15.65,2.09,1.49,2.1.84.01,1.53-.91,1.55-2.07.01-1.15-.65-2.09-1.49-2.1Z"/>
                        <path class="cls-28"
                              d="m54.68,39.59c-1.37-.02-2.48,1.48-2.51,3.31-.02,1.84,1.06,3.35,2.42,3.37.05,0,.1,0,.14,0,1.3-.09,2.34-1.54,2.36-3.3.02-1.84-1.06-3.35-2.42-3.37Zm-.08,6.47c-1.24-.02-2.24-1.43-2.21-3.16.02-1.66.97-3.02,2.16-3.1.04,0,.08,0,.13,0,1.24.02,2.24,1.43,2.21,3.16-.02,1.72-1.05,3.11-2.29,3.1Z"/>
                    </g>
                    <path class="cls-5"
                          d="m54.51,40.71c-.46,0-.83.37-.83.83s.37.83.83.83.83-.37.83-.83-.37-.83-.83-.83Z"/>
                    <path class="cls-5"
                          d="m53.38,42.38c-.27,0-.49.22-.49.49s.22.49.49.49.49-.22.49-.49-.22-.49-.49-.49Z"/>
                </g>
            </g>
            <path class="cls-14"
                  d="m76.84,43.71c.06,0,.12,0,.17,0,1.1,0,2.23.58,2.24.59l.22.12-.07-.24s-1.11-3.6-4.42-6.06c-2.72-2.02-5.07-7.82-6.63-11.66-.34-.84-.63-1.56-.89-2.15-1.51-3.44-8.37-7.65-14.99-9.18-6.35-1.47-6.87-5.03-7.29-7.88l-.09-.62-.15.2c-.83,1.08-.96,4.34-.38,6.16-1.74-2.05-3.95-3.3-5.91-3.3-.38,0-.74.05-1.07.14l-.28.08.27.12c1.15.52,2.81,2.31,3.54,3.14-1.16-.61-2.57-1.21-3.91-1.21-.7,0-1.35.17-1.91.5l-.2.12.22.07c.83.28,1.32.71,1.55.96-.29-.03-.79-.07-1.48-.07-2.94,0-8.66.71-13.89,5.42-3.38,2.79-4.95,6.72-5.99,9.32-.33.82-.58,1.47-.82,1.88-.38.65-1.75,1.63-3.34,2.77-2.57,1.85-5.78,4.15-7.33,6.7l-.1.16h.19c.59,0,1.56-.22,2.2-.39-1.29.93-4.32,3.6-4.43,8.34v.34s.19-.27.19-.27c.56-.76,1.69-1.69,2.26-2.13-.57,1.37-2.03,6.16,2.46,11.01,4.97,5.37,16.46,8.58,24.69,8.58.41,0,.82,0,1.21-.02,1.85,2.38,4.15,3.59,6.84,3.59h0c2.9,0,5.29-1.46,5.55-1.62.44-.05,6.55-.71,11.49-.84,3.46-.09,16.94-2.67,20.92-9.8,1.57-2.82,1.41-5.99-.48-9.44,1.59,1.07,2.57,3.25,2.58,3.28l.15.33.05-.36s.58-4.09-2.93-6.66Zm2.75,6.25c-.38-.74-1.39-2.45-2.84-3.23l-.33-.18.19.32c2.04,3.52,2.27,6.74.68,9.59-2.06,3.7-6.79,6.05-10.4,7.37-4.4,1.61-8.59,2.27-10.34,2.32-5.11.14-11.47.84-11.53.85h-.03s-.02.02-.02.02c-.02.02-2.46,1.6-5.45,1.6-2.64,0-4.9-1.2-6.71-3.55l-.03-.04h-.06c-.4.02-.83.03-1.25.03-8.19,0-19.6-3.18-24.53-8.51-5.19-5.6-2.28-11.1-2.25-11.15l.23-.42-.38.28c-.07.05-1.59,1.16-2.43,2.17.3-5.65,4.83-8.18,4.88-8.21l.88-.48-.96.28s-1.65.49-2.6.55c1.57-2.44,4.67-4.67,7.17-6.47,1.68-1.2,3-2.15,3.4-2.84.25-.42.51-1.08.84-1.9,1.03-2.58,2.58-6.48,5.93-9.24,5.18-4.67,10.84-5.37,13.75-5.37,1.06,0,1.71.1,1.71.1l.23.04-.13-.2s-.47-.72-1.6-1.16c.48-.24,1.01-.36,1.59-.36,1.49,0,3.09.78,4.32,1.46l.49.27-.36-.43c-.09-.11-2.19-2.63-3.73-3.5.23-.04.48-.07.74-.07,2.11,0,4.53,1.5,6.29,3.91l.17-.12c-.93-1.33-.86-5.12-.15-6.49v.09c.41,2.77.96,6.55,7.46,8.06,6.56,1.52,13.36,5.67,14.84,9.06.26.59.55,1.31.89,2.15,1.57,3.86,3.94,9.69,6.7,11.75,2.77,2.06,3.96,4.89,4.26,5.72-.4-.18-1.25-.5-2.11-.5-.17,0-.33.01-.48.04l-.26.04.22.15c2.99,2.03,3.14,5.16,3.1,6.23Z"/>
        </g>
        <path d="m30.51,62.85l-.13.17s1.66,1.23,2.34,2.27l.18-.12c-.71-1.07-2.33-2.27-2.4-2.32Z"/>
        <path d="m44.17,67.46l.13.17c1.8-1.45,4.18-2.82,4.2-2.83l-.11-.18s-2.42,1.39-4.23,2.85Z"/>
        <g>
            <path class="cls-23"
                  d="m57.21,47.33c-1.59-.64-5.2-.48-6.89,1.75-5.09-7.63-4.63-22.48-.92-27.57,4.88-6.68,10.94-3.27,11-3.26-2.41-1.3-5.18-2.39-7.96-3.03-6.71-1.55-7-5.51-7.42-8.34-.92,1.2-.99,5.44,0,6.86-2.33-3.18-5.37-4.38-7.42-3.82,1.56.71,3.96,3.6,3.96,3.6-1.91-1.06-4.31-2.12-6.22-.99,1.27.42,1.77,1.2,1.77,1.2,0,0-4.69-.72-10.12,1.73,14.33-.88,11.57,15.58,10.83,21.42-.74,5.83-6.54,10.25-8.27,10-1.48-1.52-3.18-2.26-5.27-1.8-.92-.53-7.95-2.16-13.11-.6-5.16,1.56-7.35,6.12-7.35,6.12.26,1.8,1.07,3.89,3.03,6,5.3,5.73,17.81,8.87,25.87,8.52,5.14,6.7,12.3,1.98,12.3,1.98,0,0,6.36-.71,11.52-.85,4.15-.11,19.97-3.48,21.72-12.16-7.33-7.34-18.19-7.19-21.05-6.77Z"/>
            <path class="cls-5"
                  d="m57.18,47.29c-1.59-.64-5.2-.48-6.89,1.75-5.09-7.63-4.63-22.48-.92-27.57,4.88-6.68,10.94-3.27,11-3.26-2.41-1.3-5.18-2.39-7.96-3.03-6.71-1.56-7-5.51-7.42-8.34-.92,1.2-.99,5.44,0,6.86-2.33-3.18-5.37-4.38-7.42-3.82,1.56.71,3.96,3.6,3.96,3.6-1.91-1.06-4.31-2.12-6.22-.99,1.27.42,1.77,1.2,1.77,1.2,0,0-4.69-.72-10.12,1.73,14.33-.88,11.57,15.58,10.83,21.42-.74,5.83-6.54,10.25-8.27,10-1.48-1.52-3.18-2.26-5.27-1.8-.92-.53-7.95-2.16-13.11-.6-5.16,1.56-7.35,6.12-7.35,6.12.26,1.8,1.07,3.89,3.03,6,.28.3.59.6.91.89.12.02.24.05.36.07,5.87,3.93,18.83,6.23,23.1,4.45,1.55,2.33,9.85,8.73,15.49,1.74,5.3,1.05,24.6-3.36,25-14.13-6.11-2.76-12.43-2.6-14.51-2.29Z"/>
            <path class="cls-23"
                  d="m39.35,53.92c-4.83,1.95-11.48-3.84-11.48-3.84,0,0,3.25,4.43,6.53,5.4,2.67.79,5.07-.38,5.07-.38,0,0,1.83,1.61,4.69,1.42,4.43-.48,5.96-2.65,8.07-5.41-4.39,5.07-8.65,4.29-12.88,2.81Z"/>
            <path class="cls-17"
                  d="m59.92,47.06c-1.01,0-1.99.06-2.69.16-.53-.21-1.25-.32-2.02-.32-2.04,0-3.85.74-4.88,2-4.88-7.48-4.62-22.15-.84-27.32,1.98-2.72,4.39-4.1,7.15-4.1.99,0,1.85.18,2.52.39.08-.09.18-.17.28-.23-2.25-1.11-4.64-1.98-6.98-2.52-6.35-1.47-6.87-5.03-7.29-7.88l-.09-.62-.15.2c-.83,1.08-.96,4.34-.38,6.16-1.74-2.05-3.95-3.3-5.91-3.3-.38,0-.74.05-1.07.14l-.28.08.27.12c1.15.52,2.81,2.31,3.54,3.14-1.16-.61-2.57-1.21-3.91-1.21-.7,0-1.35.17-1.91.5l-.2.12.22.07c.83.28,1.32.71,1.55.96-.29-.03-.79-.07-1.48-.07-1.99,0-5.07.32-8.44,1.84l-.53.24.58-.04c3.78-.23,6.66.75,8.56,2.91,3.98,4.54,2.86,13.06,2.26,17.63-.04.27-.07.52-.1.75-.7,5.52-6.11,9.92-8.02,9.92-.03,0-.07,0-.1,0-1.62-1.64-3.34-2.23-5.3-1.81-.74-.39-4.24-1.25-8.05-1.25-1.93,0-3.65.22-5.1.66-5.15,1.55-7.39,6.13-7.41,6.17v.03s0,.03,0,.03c.31,2.16,1.34,4.2,3.06,6.06,4.97,5.37,16.46,8.58,24.69,8.58.41,0,.82,0,1.21-.02,1.85,2.38,4.15,3.59,6.84,3.59h0c2.9,0,5.29-1.46,5.55-1.62.44-.05,6.55-.71,11.49-.84,4.12-.11,20.05-3.46,21.82-12.24v-.06s-.03-.04-.03-.04c-6.27-6.29-14.97-6.97-18.42-6.97Zm-3.38,19.09c-5.11.14-11.47.84-11.53.85h-.03s-.02.02-.02.02c-.02.02-2.46,1.6-5.45,1.6-2.64,0-4.9-1.2-6.71-3.55l-.03-.04h-.06c-.4.02-.83.03-1.25.03-8.19,0-19.6-3.18-24.53-8.51-1.69-1.82-2.7-3.81-3-5.91.2-.39,2.42-4.57,7.27-6.03,1.44-.43,3.13-.65,5.04-.65,3.79,0,7.36.88,7.98,1.24l.04.02h.04c1.91-.43,3.58.14,5.17,1.76l.03.03h.04c1.85.27,7.64-4.19,8.39-10.09.03-.23.06-.49.1-.75.61-4.61,1.73-13.18-2.31-17.8-1.76-2-4.33-3.02-7.64-3.02-.17,0-.34,0-.51,0,3.13-1.31,5.96-1.59,7.82-1.59,1.06,0,1.71.1,1.71.1l.23.04-.13-.2s-.47-.72-1.6-1.16c.48-.24,1.01-.36,1.59-.36,1.49,0,3.09.78,4.32,1.46l.49.27-.36-.43c-.09-.11-2.19-2.63-3.73-3.5.23-.04.48-.07.74-.07,2.11,0,4.53,1.5,6.29,3.91l.41.37-.24-.5c-.93-1.33-.86-5.12-.15-6.49v.09c.41,2.77.96,6.55,7.46,8.06,2.1.49,4.25,1.24,6.3,2.2-.59-.15-1.3-.26-2.08-.26-1.95,0-4.8.73-7.32,4.18-3.83,5.25-4.09,20.18.92,27.69l.08.12.09-.12c.97-1.27,2.76-2.03,4.8-2.03.76,0,1.46.11,1.97.32h.03s.03,0,.03,0c.7-.1,1.68-.16,2.69-.16,3.41,0,12.02.67,18.23,6.86-1.8,8.61-17.53,11.9-21.61,12.01Z"/>
        </g>
        <path class="cls-17"
              d="m24.52,48.46s.54.73,1.56,1.16c.66.28,1.46.5,2.33.5,1.25,0,2.29-.82,2.29-.82-3.08,1.74-6.16-.81-6.19-.84Z"/>
        <path class="cls-17"
              d="m49.91,49.94s.43.59,1.32.96c.62.26,1.41.52,2.3.61.23.02.47.04.71.04.57,0,1.72-.45,1.72-.45-3.25.93-6.03-1.14-6.06-1.16Z"/>
        <path class="cls-17"
              d="m39.41,55.01l-.05-.03-.05.03c-5.99,3.1-11.21-4.96-11.26-5.04l-.18.11c.05.08,5.34,8.26,11.49,5.14,1.55.95,3.1,1.43,4.61,1.43,2.97,0,5.83-1.82,8.43-5.41l-.17-.12c-3.88,5.34-8.31,6.69-12.81,3.9Z"/>
        <g>
            <path class="cls-29"
                  d="m39.35,55.1c-3.15,1.63-6.06.26-8.16-1.47.96,1.39,2.56,3.85,3.07,5.52.74,2.44,1.64,6.13,5.04,6.36,3.11.21,4.45-2.34,5.25-4.35.97-2.44,1.63-4.05,2.68-5.39-2.44,1.17-5.08,1.06-7.87-.67Z"/>
            <path class="cls-30"
                  d="m39.35,55.21c-3.15,1.63-6.06.26-8.16-1.47.96,1.39,2.56,3.85,3.07,5.52.4,1.31.85,2.99,1.7,4.29.2-2.01.5-4.35,1.85-4.93,3.84-2,4.79,2.04,5.02,5.61.8-.86,1.32-1.97,1.71-2.96.97-2.44,1.63-4.05,2.68-5.39-2.44,1.17-5.08,1.06-7.87-.67Z"/>
            <g>
                <path class="cls-22"
                      d="m35.07,55.67c.31.76.73,1.9,1.01,2.98.39,1.51,1.34,2.58,3.3,2.01,1.67.34,3.86.59,4-4.15-1.3-.1-2.65-.56-4.04-1.42-1.5.78-2.95.87-4.29.57Z"/>
                <path class="cls-5"
                      d="m35.07,55.67c.31.76.73,1.9,1.01,2.98.07.27.16.53.27.77,1.04.68,2.4.65,3.58.26,1.69-.31,2.05-1.84,2.11-3.39-.88-.23-1.78-.62-2.69-1.18-1.5.78-2.95.87-4.29.57Z"/>
                <path class="cls-15"
                      d="m39.41,55.01l-.05-.03-.05.03c-1.35.7-2.77.89-4.21.56l-.2-.04.08.19c.31.76.73,1.9,1.01,2.97.48,1.85,1.67,2.59,3.41,2.1.41.08.85.16,1.28.16,1.84,0,2.73-1.4,2.82-4.42v-.1s-.1,0-.1,0c-1.31-.1-2.65-.57-3.99-1.4Zm1.26,5.71c-.43,0-.86-.08-1.27-.16h-.03s-.03,0-.03,0c-1.64.47-2.72-.19-3.17-1.94-.26-1-.64-2.05-.94-2.81,1.41.28,2.79.08,4.11-.59,1.31.8,2.63,1.27,3.93,1.39-.13,3.68-1.55,4.11-2.61,4.11Z"/>
            </g>
            <path class="cls-15" d="m39.25,55.1c.03,1.78.07,5.22.03,5.55l.21.03c.05-.43-.03-5.37-.03-5.58h-.21Z"/>
            <g>
                <path class="cls-13"
                      d="m35.86,63.28c.74,1.2,1.8,2.12,3.44,2.23,1.61.11,2.74-.52,3.57-1.43-.9-.78-2.51-2.04-3.68-2.11-1.14-.07-2.54.75-3.33,1.3Z"/>
                <path class="cls-11"
                      d="m39.19,61.98c-1.14-.07-2.54.75-3.33,1.3.36.58.79,1.09,1.32,1.48,1.08.28,2.17.31,3.18-.2.77-.58.48-1.43.23-2.11-.49-.26-.97-.44-1.39-.47Z"/>
                <path class="cls-18"
                      d="m39.2,61.87c-1.13-.07-2.49.69-3.4,1.32l-.08.06.05.09c.88,1.43,2.04,2.18,3.52,2.28.12,0,.25.01.37.01h0c1.29,0,2.4-.5,3.29-1.47l.07-.08-.08-.07c-.88-.76-2.54-2.06-3.74-2.13Zm.46,3.55c-.11,0-.23,0-.35-.01-1.38-.09-2.46-.78-3.3-2.1.75-.51,2.1-1.3,3.18-1.23,1.11.07,2.65,1.26,3.53,2.01-.85.89-1.85,1.32-3.06,1.32Z"/>
            </g>
            <path class="cls-17"
                  d="m39.41,55.01l-.05-.03-.05.03c-2.54,1.31-5.3.8-8.04-1.46l-.59-.48.43.63c.92,1.33,2.54,3.82,3.05,5.49.04.14.09.29.13.44.73,2.44,1.73,5.78,5,6,.12,0,.25.01.37.01,2.87,0,4.17-2.37,4.99-4.43.97-2.46,1.62-4.04,2.67-5.37l.28-.36-.41.2c-2.5,1.2-5.14.97-7.77-.66Zm5.04,6.11c-.82,2.08-2.15,4.49-5.14,4.28-3.12-.21-4.1-3.47-4.81-5.85-.04-.15-.09-.3-.13-.44-.45-1.48-1.75-3.58-2.7-4.98,2.61,1.94,5.25,2.32,7.68,1.09,2.55,1.56,5.11,1.84,7.55.81-.92,1.28-1.55,2.81-2.45,5.09Z"/>
        </g>
        <g>
            <path class="cls-10"
                  d="m34.55,49.16c-.5,1.4,2.47,4.5,4.8,4.66,1.87.13,5.35-2.62,5.35-3.92,0-2.47-8.77-3.84-10.15-.74Z"/>
            <path class="cls-4" d="m34.55,49.16c-.56,2.54,9.94,3.07,10.15.74.22-2.45-8.77-3.84-10.15-.74Z"/>
            <rect class="cls-17" x="39.25" y="53.82" width=".21" height="1.29"/>
            <path class="cls-25"
                  d="m38.86,47.26c-2.28,0-3.88.68-4.41,1.86-.16.46,0,1.11.47,1.83.9,1.37,2.79,2.86,4.42,2.97.05,0,.09,0,.14,0h0c1.98,0,5.32-2.75,5.32-4.03,0-.35-.16-.7-.48-1.02-.94-.94-3.24-1.62-5.47-1.62Zm.5,6.45c-1.56-.11-3.39-1.55-4.26-2.88-.43-.66-.59-1.24-.45-1.63.49-1.1,2.02-1.73,4.21-1.73s4.42.65,5.32,1.56c.28.28.42.57.42.87,0,1.21-3.42,3.94-5.24,3.81Z"/>
        </g>
        <path class="cls-17" d="m22.7,45.55s.99-.24,1.98-.43l-.04-.21c-1.02.2-1.9.62-1.94.64Z"/>
        <path class="cls-17" d="m29.35,46.84c.24.23.99.92.99.92-.02-.03-.59-.83-.84-1.08l-.15.15Z"/>
        <path class="cls-17" d="m56.83,47.09l-.07.2c.82.28,1.84,1.19,1.84,1.19-.04-.04-.9-1.09-1.77-1.39Z"/>
        <path class="cls-16"
              d="m56.29,27.05c-2.44-1.22-4.59.87-4.59.87,5.8-.11,7.71,4.82,7.71,4.82,0,0-.69-4.48-3.13-5.7Z"/>
        <path class="cls-16"
              d="m24.39,24.7c-2.44,1.22-3.13,5.7-3.13,5.7,0,0,1.91-4.93,7.71-4.82,0,0-2.15-2.09-4.59-.87Z"/>
        <g>
            <path class="cls-19"
                  d="m70.68,4.02c-6.28-.65-7.53,4.72-8.27,8.16s-3.18,5.73-3.18,5.73l7.06,4.95c1.05-.84,5.5-1.98,7.15-3.84,3.5-4.14,3.39-14.37-2.76-15Z"/>
            <path class="cls-21"
                  d="m70.68,4.02c-6.28-.65-7.53,4.72-8.27,8.16s-3.18,5.73-3.18,5.73l6.19,4.43c.27-.62.49-1.35,1.02-1.68,5.09-2.76,4.24-7.85,6.57-12.09.21-.42,1.7,1.06,2.12,0,.05-.16.08-.32.09-.47-.72-2.18-2.19-3.84-4.55-4.09Z"/>
            <path class="cls-9"
                  d="m70.68,4.02c-6.28-.65-7.53,4.72-8.27,8.16s-3.18,5.73-3.18,5.73c3.6-2.54,3.82-7,6.15-10.6,1.77-3.02,6.93-3.85,9.51-.05-.8-1.75-2.17-3.02-4.21-3.23Z"/>
            <path class="cls-14"
                  d="m70.69,3.91c-6.46-.67-7.67,4.91-8.38,8.25-.73,3.37-3.13,5.65-3.15,5.67l.14.15s2.47-2.34,3.21-5.78c.7-3.27,1.88-8.73,8.16-8.08,2.47.26,3.68,2.04,4.27,3.49,1.4,3.48.68,8.67-1.58,11.33-1.02,1.15-3.11,2-4.8,2.69-.99.4-1.94.81-2.34,1.13l.12.15c.38-.3,1.32-.69,2.3-1.09,1.7-.69,3.83-1.56,4.88-2.75,2.3-2.72,3.04-8.01,1.62-11.55-.87-2.16-2.41-3.41-4.44-3.63Z"/>
        </g>
        <g>
            <g>
                <path class="cls-2"
                      d="m69.05,6.45c-1.53.26-2.72,1.33-3.46,5.62-.74,4.29-2.89,7.55-2.89,7.55l2.86,2.28c4.98-1.55,7.74-6.19,8.27-10.39.53-4.21-2.65-5.41-4.77-5.05Z"/>
                <path d="m65.54,22l-2.96-2.36.04-.07s2.15-3.29,2.88-7.52c.75-4.36,1.96-5.43,3.54-5.69.24-.04.48-.06.73-.06,1.28,0,2.44.49,3.2,1.35.82.93,1.14,2.26.94,3.86-.48,3.78-2.94,8.79-8.33,10.47h-.04Zm-2.72-2.38l2.76,2.2c5.28-1.67,7.7-6.59,8.17-10.31.2-1.57-.1-2.82-.9-3.72-.72-.82-1.84-1.29-3.07-1.29-.24,0-.48.02-.7.06-1.5.25-2.65,1.29-3.39,5.55-.68,3.92-2.55,7.02-2.86,7.51Z"/>
            </g>
            <path class="cls-7"
                  d="m69.2,11.33c-2.58,2.38-3.12,6.44-6.31,7.99-.12.19-.19.3-.19.3l2.86,2.28c4.34-1.35,7-5.05,7.96-8.76-.19-.55-.42-1.08-.71-1.6-.64-1.06-2.54-1.06-3.6-.21Z"/>
            <path class="cls-14"
                  d="m69.04,6.35c-1.58.26-2.8,1.34-3.55,5.71-.73,4.22-2.86,7.48-2.88,7.51l.18.12s2.17-3.32,2.91-7.59c.73-4.25,1.88-5.28,3.38-5.53,1.03-.17,2.5,0,3.56,1.02.92.89,1.3,2.24,1.09,3.91-.47,3.72-2.9,8.65-8.2,10.31l.06.2c5.4-1.68,7.87-6.7,8.35-10.48.22-1.74-.18-3.16-1.15-4.09-1.11-1.07-2.66-1.26-3.74-1.08Z"/>
        </g>
        <g>
            <path class="cls-19"
                  d="m18.9,1.24c-6.57,4.42-3.92,13.57-1.31,15.27,2.02,1.31,5.09,1.71,5.09,1.71l5.05-2.84s-1.02-2.61-1.1-7.85c-.07-5.05-2.79-9.62-7.74-6.29Z"/>
            <path class="cls-21"
                  d="m26.79,14.3c-3-5.3.48-12.86-4.86-14.19-.89.03-1.9.37-3.02,1.13-6.57,4.42-3.92,13.57-1.31,15.27,2.02,1.31,5.09,1.71,5.09,1.71l5.05-2.84s-.01-.04-.04-.1c-.42-.29-.76-.69-.92-.98Z"/>
            <path class="cls-9"
                  d="m17.56,16.48c-2-2.56-1.96-6.2-1.59-9.17.43-3.14,2.68-5.89,5.6-7.17-.8.1-1.69.44-2.66,1.1-6.54,4.4-3.95,13.48-1.35,15.24Z"/>
            <path class="cls-14"
                  d="m23.66.39c-1.36-.71-3.02-.45-4.82.76-2.71,1.82-4.19,4.73-4.16,8.19.03,3.4,1.47,6.36,2.86,7.26,1.91,1.24,4.75,1.65,4.99,1.65l.09.03.22-.19s-3.21-.39-5.18-1.67c-1.31-.85-2.73-3.8-2.76-7.08-.03-3.38,1.42-6.23,4.07-8.01,1.75-1.18,3.3-1.43,4.6-.75,1.76.92,2.93,3.65,2.97,6.95.07,5.2,1.09,7.86,1.1,7.89l.2-.08s-1.02-2.66-1.09-7.81c-.05-3.43-1.23-6.16-3.09-7.14Z"/>
        </g>
        <g>
            <g>
                <path class="cls-2"
                      d="m23.71,12.56c.07-2.12,1.83-6.8.19-8.78s-6.08-1.71-7.36,4.45c-.94,4.47,1.19,8.25,6.43,9.6l1.77-1.12s-1.11-1.58-1.03-4.16Z"/>
                <path d="m22.98,17.93h-.04c-5.06-1.32-7.49-4.95-6.49-9.72.87-4.14,3.16-5.62,5.01-5.62,1,0,1.92.41,2.51,1.13,1.19,1.43.64,4.23.2,6.48-.18.9-.34,1.75-.37,2.36-.09,2.52,1,4.09,1.01,4.1l.05.08-1.88,1.19Zm-1.52-15.16c-1.78,0-3.99,1.44-4.84,5.48-.97,4.66,1.39,8.2,6.33,9.49l1.67-1.05c-.22-.35-1.07-1.87-.99-4.13.02-.63.19-1.48.37-2.39.43-2.21.98-4.96-.16-6.33-.56-.68-1.42-1.06-2.37-1.06Z"/>
            </g>
            <path class="cls-7"
                  d="m23.71,12.56c.04-1.04.47-2.68.72-4.33-.21-.8-.55-.96-1.21-1.62-.85-1.06-2.69-.62-3.75.22-3.07,3.07-2.55,7.4.59,9.83.83.49,1.8.88,2.9,1.17l1.77-1.12s-1.11-1.58-1.03-4.16Z"/>
            <path class="cls-14"
                  d="m23.82,12.57c.02-.61.19-1.46.37-2.36.44-2.25.99-5.05-.2-6.49-.78-.94-2.12-1.34-3.42-1.02-2,.49-3.5,2.51-4.13,5.52-1,4.78,1.43,8.42,6.5,9.73l.16-.16c-4.95-1.28-7.43-4.87-6.45-9.53.61-2.93,2.06-4.89,3.98-5.36,1.22-.3,2.47.07,3.2.95,1.13,1.36.59,4.11.15,6.32-.18.91-.35,1.77-.37,2.4-.09,2.59,1,4.16,1.04,4.22l.17-.12s-1.09-1.58-1.01-4.09Z"/>
        </g>
        <path class="cls-17" d="m31.63,63.46s.85,1.75,1.35,2.15l.13-.17c-.47-.38-1.47-1.97-1.48-1.98Z"/>
        <path class="cls-17" d="m44.45,67.32l.09.19c1.01-.47,1.65-1.89,1.68-1.95,0,0-.83,1.32-1.77,1.76Z"/>
        <path class="cls-6"
              d="m38.35,62.65c-.23-.02-.45.28-.48.67-.04.39.12.73.35.75.23.02.45-.28.48-.67.04-.39-.12-.73-.35-.75Z"/>
        <path class="cls-8"
              d="m39.16,47.76c-1.43-.05-2.61.3-2.63.77-.02.48,1.13.91,2.57.96,1.43.05,2.61-.3,2.63-.77.02-.48-1.13-.91-2.57-.96Z"/>
    </g>
    <g>
        <path class="cls-19"
              d="m23.94,70.18l-12.35,9.22s-.66,8.14,13.62,8l4.97-3.22s.58-5.9-1.8-9.33c-2.38-3.43-4.44-4.67-4.44-4.67Z"/>
        <path class="cls-21"
              d="m23.94,70.18l-12.45,9.17s.1-.03.1.05c1.44,3.7,3.77,4.58,6.53,4.9,4.2.48,6.52,1.11,9.64,2.4,1.62-1.05,2.41-2.52,2.41-2.52,0,0,.58-5.9-1.8-9.33-2.38-3.43-4.44-4.67-4.44-4.67Z"/>
        <path class="cls-9"
              d="m28.37,74.85c-2.38-3.43-4.44-4.67-4.44-4.67l-.02.02c3.81,3.34,6.15,9.7,5.35,15.06.97-.74.91-1.07.91-1.07,0,0,.58-5.9-1.8-9.33Z"/>
        <path class="cls-14"
              d="m26.35,72.16c-1.37-1.47-2.47-1.89-2.47-1.89.02.01,2.07,1.27,4.4,4.64,2.22,3.19,1.84,8.63,1.79,9.21l-4.9,3.18c-5.53.05-9.48-1.13-11.73-3.51-1.98-2.1-1.85-4.4-1.85-4.43,0,0-.28,1.26.45,2.78.28.58.68,1.19,1.24,1.79,2.24,2.38,6.13,3.58,11.56,3.58.12,0,.24,0,.37,0h.03s5.04-3.26,5.04-3.26v-.05c.01-.06.56-5.98-1.82-9.4-.75-1.08-1.47-1.95-2.11-2.63Z"/>
    </g>
    <g>
        <path class="cls-3"
              d="m31.78,84.14c-2.05-1.47-5.69-.54-6.75,1.96-.67,1.57-1.08,4.02.45,5.04.52.45-.42,4.8.59,5.63,1.02.84,2.34-1.99,2.59-2.8.31,2.06.98,3.6,1.96,3.6s1.57-2.73,1.57-3.67c.31.88.94,2.31,1.76,2.31,1.21,0,2.55-7.59-2.18-12.07Z"/>
        <path class="cls-1"
              d="m25.03,86.1c-.14.33-.27.71-.37,1.1.3,2.24,1.55,2.7,1.69,3.47.24,1.37.09,3.17.68,3.54.76.46,1.35-.78,1.82-1.77.21.63.73,2.24,1.35,2.34,1.31.21,1.8-1.3,2.01-2.56.42.84,1.05,1.68,2.1,1.26.59-.3.72-.83.8-1.37-.06-2.5-.88-5.65-3.32-7.97-2.05-1.47-5.69-.54-6.75,1.96Z"/>
        <path class="cls-12"
              d="m27.51,83.81c4.14-.14,6.38,3.33,7.49,6.98-.28-2.22-1.19-4.72-3.22-6.65-1.16-.84-2.84-.9-4.27-.33Z"/>
        <path class="cls-24"
              d="m31.85,84.06c-.66-.47-1.49-.72-2.42-.72-1.96,0-3.81,1.12-4.5,2.73-.74,1.74-1.06,4.14.48,5.16.18.16.14,1.13.1,1.99-.06,1.47-.14,3.13.49,3.65.14.12.3.18.47.18.89,0,1.79-1.73,2.15-2.65.38,2.1,1.1,3.3,2,3.3s1.51-2.11,1.65-3.3c.52,1.28,1.09,1.93,1.69,1.93.28,0,.55-.3.77-.86.87-2.19.93-7.78-2.89-11.41Zm2.7,11.33c-.18.45-.4.72-.58.72-.55,0-1.14-.8-1.66-2.24l-.2-.57v.6c0,1.04-.64,3.57-1.47,3.57s-1.52-1.31-1.86-3.52l-.07-.46-.13.44c-.21.69-1.24,2.88-2.09,2.88-.12,0-.23-.04-.33-.13-.55-.46-.48-2.13-.42-3.48.05-1.23.07-1.94-.19-2.16-1.55-1.02-.99-3.57-.42-4.91.65-1.53,2.42-2.6,4.3-2.6.88,0,1.67.24,2.28.67,3.74,3.55,3.69,9.03,2.83,11.17Z"/>
    </g>
    <path class="cls-24" d="m28.38,90.02s.74,2.54,0,4.43l.2.08c.29-.73.36-1.55.35-2.28-.03-1.22-.54-2.22-.54-2.22Z"/>
    <path class="cls-24" d="m31.34,89.22s1.01,2.93.69,5.39l.21.03c.13-.99.05-2.04-.1-2.96-.22-1.42-.8-2.46-.8-2.46Z"/>
    <g>
        <path class="cls-3"
              d="m15.51,102.12c-.42-2.49.52-6.22-1.05-6.43-2.48,0-2.79,5.9-2.99,5.67-.44-.49-.36-5.55-1.31-5.67-.41-.05-1.78.03-2.17,2.06-.47,2.48.7,5,.7,5,0,0-.24.42-.56.35-.71-.07-.96-5.7-2.73-5.53-.7.11-1.49,1.4-1.49,2.89,0,3.45.57,4.28,1.17,5.97.44,1.25,2.96,5.44,3.73,6.82,1.52,2.73,5.2,6.06,7.58,4.98s2.03-3.82,1.57-5.7c-.45-1.89-2.09-8.29-2.45-10.4Z"/>
        <path class="cls-1"
              d="m14.39,101.66c0-1.97.7-6.08-.41-5.88-2.04.7-2.32,5.8-2.51,5.59,0,0,0-.01-.01-.02,0,.32.06.55-.13.87-1.83-1.83-.76-6.13-1.94-6.43-.54.19-1.16.7-1.4,1.97-.47,2.48.7,5,.7,5,0,0-.18.3-.42.35v.04c-.74.52-.98.86-1.4,1.47-.6-2.38-.37-6.81-1.88-6.85-.56.43-1.08,1.5-1.08,2.7,0,3.45.57,4.28,1.17,5.97.44,1.25,2.96,5.44,3.73,6.82.33.58.75,1.2,1.24,1.79,3.26,3.8,6.21,1.41,6.06-1.45,0-3.72-1.72-6.79-1.72-11.94Z"/>
        <path class="cls-24"
              d="m17.6,110.63c-.68-2.75-1.71-6.9-1.99-8.53-.15-.87-.12-1.89-.1-2.88.04-1.87.08-3.49-1.05-3.64-1.98,0-2.6,3.4-2.9,5.03-.03.18-.07.36-.09.49-.1-.36-.18-1.12-.26-1.86-.22-2.09-.42-3.58-1.03-3.66-.05,0-.11-.01-.18-.01-.4,0-1.73.16-2.11,2.16-.43,2.29.52,4.63.68,5.02-.07.1-.22.26-.37.26-.02,0-.03,0-.06,0-.2-.02-.44-1.01-.63-1.81-.4-1.66-.91-3.73-2.03-3.73-.03,0-.06,0-.09,0-.74.11-1.58,1.41-1.58,2.99,0,2.91.41,3.99.9,5.25.09.24.19.49.28.76.34.95,1.82,3.51,2.9,5.38.35.6.64,1.11.83,1.45,1.4,2.52,4.35,5.24,6.66,5.24.38,0,.73-.07,1.05-.22,2.74-1.25,1.91-4.69,1.63-5.82-.1-.43-.27-1.08-.46-1.87Zm-1.26,7.5c-.29.13-.62.2-.96.2h0c-2.16,0-5.09-2.66-6.48-5.14-.19-.34-.49-.85-.83-1.45-1.02-1.76-2.56-4.42-2.89-5.35-.1-.27-.19-.52-.29-.76-.47-1.23-.88-2.3-.88-5.17,0-1.45.75-2.69,1.39-2.78.02,0,.05,0,.07,0,.95,0,1.46,2.06,1.82,3.57.31,1.27.49,1.93.81,1.97.03,0,.06.01.09.01.34,0,.57-.39.58-.41l.03-.05-.02-.05s-1.15-2.52-.69-4.94c.35-1.85,1.54-1.99,1.9-1.99.06,0,.11,0,.15,0,.5.06.71,2.12.85,3.48.13,1.24.21,1.95.4,2.16l.04.04h.05c.13,0,.16-.13.28-.82.27-1.45.89-4.86,2.68-4.86.92.12.89,1.73.85,3.43-.02,1-.04,2.03.11,2.92.28,1.64,1.31,5.79,1.99,8.54.19.78.36,1.44.46,1.87.46,1.89.79,4.53-1.52,5.58Z"/>
    </g>
    <path class="cls-24"
          d="m7.57,103.57c-.8.79-1.08,1.61-1.08,1.61.02-.03,1.73-2.72,4.54-3.45,0,0-1.17.18-1.66.46-.72.41-1.33.91-1.81,1.38Z"/>
    <g>
        <path class="cls-19"
              d="m58.21,70.18s-2.06,1.24-4.44,4.67-1.8,9.33-1.8,9.33l4.97,3.22c14.28.14,13.72-8.05,13.72-8.05l-12.45-9.17Z"/>
        <path class="cls-21"
              d="m57.67,70.56c-.77.59-2.25,1.92-3.89,4.28-2.38,3.43-1.8,9.33-1.8,9.33t4.21,2.73c1.34-.62,2.8-1.1,4.16-1.61,4.93-2.22,6.35-8.71,1.69-13.39-1.22-1.23-2.53-1.73-4.37-1.34Z"/>
        <path class="cls-9"
              d="m57.67,70.56c-.77.59-2.25,1.92-3.89,4.28-2.38,3.43-1.8,9.33-1.8,9.33,0,0-.46-.15,1.02.81-.71-5.1,1.1-10.24,4.75-14.43-.02,0-.05,0-.07.01Z"/>
        <path class="cls-14"
              d="m68.71,83.77c-2.25,2.38-6.2,3.56-11.74,3.52l-4.9-3.18c-.05-.58-.43-6.01,1.79-9.21,2.34-3.37,4.38-4.63,4.4-4.64,0,0-1.13.45-2.55,1.98-.62.67-1.31,1.51-2.03,2.55-2.37,3.42-1.83,9.34-1.82,9.4v.05s5.02,3.25,5.02,3.25l.03.02h.03c.12,0,.24,0,.37,0,5.43,0,9.31-1.21,11.56-3.58.32-.34.59-.69.81-1.03,1.19-1.83.88-3.53.88-3.53,0,.02.13,2.32-1.85,4.42Z"/>
    </g>
    <g>
        <path class="cls-3"
              d="m50.37,84.14c-4.72,4.49-3.39,12.07-2.18,12.07.82,0,1.44-1.43,1.76-2.31,0,.94.59,3.67,1.57,3.67s1.64-1.54,1.96-3.6c.24.81,1.57,3.64,2.59,2.8,1.01-.84.07-5.18.59-5.63,1.54-1.02,1.12-3.47.45-5.04-1.07-2.5-4.71-3.43-6.75-1.96Z"/>
        <path class="cls-1"
              d="m50.37,84.14c-3.23,3.07-3.63,7.58-3.17,10.13.26.67.92.78,1.44.26.63-1.26.79-2.51,1.63-3.77.14,1.66-.13,4.34,1.55,4.34.63-.21,1.18-2.24,1.39-3.29.44,1.4.72,2.51,1.98,2.72.65.11.09-2.41.38-3.85.43-2.11,1.8-4.24.25-6.21-1.57-1.19-3.94-1.41-5.45-.33Z"/>
        <path class="cls-12"
              d="m50.37,84.14c-2.94,2.8-3.53,6.79-3.27,9.41.56-3.51,1.72-7.34,4.64-9.09.71-.43,1.49-.66,2.27-.85-1.27-.32-2.64-.18-3.64.53Z"/>
        <path class="cls-24"
              d="m52.72,83.33c-.92,0-1.76.25-2.43.73-3.81,3.62-3.76,9.21-2.88,11.4.22.56.49.86.77.86.6,0,1.16-.65,1.69-1.93.14,1.18.71,3.3,1.65,3.3s1.62-1.2,2-3.3c.37.92,1.26,2.65,2.15,2.65.17,0,.32-.06.47-.18.63-.52.56-2.18.49-3.65-.04-.86-.08-1.83.09-1.98,1.55-1.02,1.24-3.43.49-5.17-.68-1.6-2.53-2.73-4.5-2.73Zm3.88,7.73c-.25.21-.23.92-.17,2.16.06,1.35.13,3.02-.42,3.48-.11.09-.21.13-.33.13h0c-.85,0-1.88-2.19-2.09-2.88l-.13-.44-.07.46c-.34,2.2-1.03,3.52-1.86,3.52s-1.47-2.53-1.47-3.57v-.6l-.2.57c-.52,1.44-1.11,2.24-1.66,2.24-.18,0-.4-.27-.58-.72-.86-2.14-.9-7.62,2.82-11.16.62-.45,1.41-.68,2.29-.68,1.88,0,3.65,1.07,4.3,2.6.57,1.34,1.13,3.89-.43,4.92Z"/>
    </g>
    <path class="cls-24" d="m53.25,91.89c-.05.82,0,1.78.33,2.64l.2-.08c-.74-1.88,0-4.4,0-4.43,0,0-.46.82-.53,1.87Z"/>
    <path class="cls-24"
          d="m50.03,91.51c-.16.96-.26,2.08-.12,3.13l.21-.03c-.32-2.46.68-5.36.69-5.39,0,0-.55.96-.78,2.29Z"/>
    <g>
        <path class="cls-3"
              d="m76.75,97.58c-1.77-.17-2.02,5.46-2.73,5.53-.31.07-.56-.35-.56-.35,0,0,1.17-2.52.7-5-.38-2.03-1.76-2.12-2.17-2.06-.95.12-.87,5.18-1.31,5.67-.2.23-.51-5.67-2.99-5.67-1.54.25-.73,3.78-1.19,6.44-.36,2.11-1.85,8.5-2.31,10.39-.45,1.89-.8,4.62,1.57,5.7s6.05-2.25,7.58-4.98c.77-1.37,3.28-5.56,3.73-6.82.6-1.68,1.17-2.92,1.17-5.97,0-1.49-.79-2.78-1.49-2.89Z"/>
        <path class="cls-1" d="m73.99,103.15v-.03s-.04,0-.06,0c.02.01.04.02.06.03Z"/>
        <path class="cls-1"
              d="m76.26,97.7c-1.33.8-1.6,5.35-2.24,5.41-.01,0-.02,0-.03,0v.03s-.04-.02-.06-.03c-.27-.01-.47-.35-.47-.35,0,0,0,0,0,0-.27-.22-.57-.45-.94-.45.8-2.2,1.61-5.98-.4-6.62-.05,0-.09,0-.12,0-.95.12-.87,5.18-1.31,5.67-.04.04-.06.12-.53.51-.62-2.48-1.55-6.36-3-5.87-.78.97-.26,3.86-.65,6.12-.36,2.11-1.85,8.5-2.31,10.39-.19.81-.47.96-.42,1.88.25,2.68,3.72,2.41,5.26,1.21,2.53-1.85,6.14-8.08,6.63-10.43.05-.24,1.06-.55,1.47-2.88.34-1.98.59-4.27-.86-4.61Z"/>
        <path class="cls-24"
              d="m76.76,97.48c-1.18-.11-1.7,2.02-2.12,3.72-.19.8-.44,1.79-.65,1.81-.17.04-.34-.15-.42-.26.16-.38,1.12-2.73.68-5.02-.38-2-1.71-2.16-2.11-2.16-.07,0-.13,0-.18.01-.61.08-.82,1.57-1.03,3.66-.08.74-.16,1.5-.26,1.86-.03-.13-.06-.31-.09-.49-.3-1.63-.93-5.03-2.92-5.03h0c-1.09.17-1.1,1.77-1.11,3.61,0,.98-.01,1.99-.17,2.92-.37,2.14-1.91,8.72-2.31,10.39-.27,1.13-1.1,4.58,1.63,5.82.32.15.67.22,1.05.22,2.31,0,5.25-2.72,6.66-5.24.19-.34.49-.85.83-1.45,1.08-1.87,2.57-4.43,2.9-5.38.06-.17.12-.33.18-.49.54-1.48,1-2.75,1-5.51,0-1.58-.83-2.88-1.58-2.99Zm.38,8.43c-.06.16-.12.33-.18.5-.33.93-1.87,3.59-2.89,5.35-.35.6-.64,1.11-.83,1.45-1.38,2.48-4.31,5.14-6.48,5.14-.35,0-.67-.07-.97-.2-2.31-1.05-1.97-3.69-1.52-5.58.4-1.67,1.94-8.26,2.31-10.4.16-.94.17-1.96.17-2.95,0-1.75.02-3.26.91-3.4,1.8,0,2.43,3.41,2.7,4.86.13.69.15.82.28.82h.06s.03-.04.03-.04c.18-.21.27-.92.4-2.16.14-1.36.36-3.41.85-3.47.04,0,.09,0,.15,0,.36,0,1.55.14,1.9,1.99.46,2.42-.68,4.92-.69,4.94l-.02.05.03.05s.24.41.58.41c.03,0,.06,0,.08,0,.33-.03.51-.7.82-1.97.37-1.5.87-3.57,1.82-3.57.02,0,.05,0,.06,0,.65.1,1.4,1.33,1.4,2.78,0,2.72-.46,3.98-.99,5.44Z"/>
    </g>
    <path class="cls-24"
          d="m72.81,102.22c-.5-.28-1.7-.48-1.7-.48,2.81.73,4.53,3.42,4.54,3.45,0,0-.22-.73-.93-1.46-.49-.5-1.14-1.06-1.92-1.51Z"/>
</svg>