<svg width="24" height="24" viewBox="0 0 24 24" fill="none" xmlns="http://www.w3.org/2000/svg">
<path d="M22.58 5.54667L18.6667 1.61333C18.4081 1.35604 18.0582 1.21161 17.6934 1.21161C17.3286 1.21161 16.9786 1.35604 16.72 1.61333L2.8467 15.4667L1.58004 20.9333C1.53634 21.1332 1.53784 21.3402 1.58442 21.5394C1.631 21.7386 1.72149 21.9249 1.84928 22.0846C1.97707 22.2443 2.13892 22.3735 2.32302 22.4627C2.50712 22.5518 2.70882 22.5988 2.91337 22.6C3.00868 22.6096 3.10473 22.6096 3.20004 22.6L8.72671 21.3333L22.58 7.49333C22.8373 7.23474 22.9818 6.88479 22.9818 6.52C22.9818 6.15521 22.8373 5.80526 22.58 5.54667ZM8.06004 20.1333L2.88004 21.22L4.06004 16.14L14.44 5.8L18.44 9.8L8.06004 20.1333ZM19.3334 8.83333L15.3334 4.83333L17.6534 2.52667L21.5867 6.52667L19.3334 8.83333Z" fill="#E53170"/>
</svg>
