<svg width="130" height="130" viewBox="0 0 130 130" fill="none" xmlns="http://www.w3.org/2000/svg">
<path fill-rule="evenodd" clip-rule="evenodd" d="M94.8001 101.5C111.258 101.5 124.6 88.1579 124.6 71.6999C124.6 55.2418 111.258 41.8999 94.8 41.8999C91.9162 41.8999 89.1281 42.3095 86.4907 43.0737C81.5257 33.5232 71.5413 27 60.0332 27C43.5751 27 30.2332 40.3419 30.2332 56.8C30.2332 56.8454 30.2333 56.8908 30.2335 56.9362C29.4181 56.8461 28.5894 56.7998 27.7499 56.7998C15.4063 56.7998 5.3999 66.8062 5.3999 79.1498C5.3999 90.654 14.0918 100.128 25.2668 101.363V101.5H94.8001V101.5Z" fill="url(#paint0_linear_357_865)"/>
<defs>
<linearGradient id="paint0_linear_357_865" x1="35.4069" y1="72.6935" x2="69.7295" y2="115.597" gradientUnits="userSpaceOnUse">
<stop stop-color="white"/>
<stop offset="1" stop-color="#BDE0F5"/>
</linearGradient>
</defs>
</svg>
