<svg width="130" height="130" viewBox="0 0 130 130" fill="none" xmlns="http://www.w3.org/2000/svg">
<g clip-path="url(#clip0_377_259)">
<path fill-rule="evenodd" clip-rule="evenodd" d="M94.8001 101.5C111.258 101.5 124.6 88.1579 124.6 71.6999C124.6 55.2418 111.258 41.8999 94.8 41.8999C91.9162 41.8999 89.1281 42.3095 86.4907 43.0737C81.5257 33.5232 71.5413 27 60.0332 27C43.5751 27 30.2332 40.3419 30.2332 56.8C30.2332 56.8454 30.2333 56.8908 30.2335 56.9362C29.4181 56.8461 28.5894 56.7998 27.7499 56.7998C15.4063 56.7998 5.3999 66.8062 5.3999 79.1498C5.3999 90.654 14.0918 100.128 25.2668 101.363V101.5H94.8001V101.5Z" fill="url(#paint0_linear_377_259)"/>
<path d="M50.4 69.52C55.68 69.52 59.9467 71.0133 63.2 74C66.4533 76.9867 68.08 80.9867 68.08 86C68.08 91.6 66.3467 95.76 62.88 98.48C59.4133 101.147 54.72 102.48 48.8 102.48L48.56 110.08H42.24L41.92 97.44H44.24C49.52 97.44 53.6533 96.64 56.64 95.04C59.6267 93.44 61.12 90.4267 61.12 86C61.12 82.8 60.16 80.2667 58.24 78.4C56.32 76.5333 53.7333 75.6 50.48 75.6C47.1733 75.6 44.56 76.5067 42.64 78.32C40.7733 80.08 39.84 82.5067 39.84 85.6H32.96C32.96 82.4 33.68 79.6 35.12 77.2C36.56 74.7467 38.5867 72.8533 41.2 71.52C43.8667 70.1867 46.9333 69.52 50.4 69.52ZM45.36 126.48C43.9733 126.48 42.8 126 41.84 125.04C40.88 124.08 40.4 122.907 40.4 121.52C40.4 120.133 40.88 118.96 41.84 118C42.8 117.04 43.9733 116.56 45.36 116.56C46.6933 116.56 47.8133 117.04 48.72 118C49.68 118.96 50.16 120.133 50.16 121.52C50.16 122.907 49.68 124.08 48.72 125.04C47.8133 126 46.6933 126.48 45.36 126.48Z" fill="#72BBF9"/>
</g>
<defs>
<linearGradient id="paint0_linear_377_259" x1="35.4069" y1="72.6935" x2="69.7295" y2="115.597" gradientUnits="userSpaceOnUse">
<stop stop-color="white"/>
<stop offset="1" stop-color="#BDE0F5"/>
</linearGradient>
<clipPath id="clip0_377_259">
<rect width="130" height="130" fill="white"/>
</clipPath>
</defs>
</svg>
